<svg width="393" height="393" viewBox="0 0 393 393" fill="none" xmlns="http://www.w3.org/2000/svg">
<path d="M39.4287 90.3428C40.2029 90.212 40.955 90.3752 41.667 90.8018L41.8183 90.8975C42.6121 91.4192 43.1222 92.1307 43.3086 93.0215C43.5062 93.9098 43.3174 94.7712 42.7871 95.5782C42.2639 96.3743 41.5497 96.8853 40.6552 97.0704C39.8166 97.2438 39.0095 97.0916 38.2558 96.6407L38.1064 96.5469C37.3013 96.0178 36.7864 95.3041 36.6142 94.4131V94.4141C36.4293 93.5198 36.6145 92.6613 37.1377 91.8653C37.6651 91.0628 38.3757 90.5488 39.2627 90.375L39.4287 90.3428ZM41.5439 91.3155C40.8353 90.8498 40.1111 90.6987 39.3711 90.8633C38.6266 91.0058 38.0213 91.4312 37.5556 92.1397C37.0987 92.835 36.9486 93.5601 37.1045 94.3135C37.247 95.0579 37.6723 95.6633 38.3808 96.129C39.076 96.5858 39.8004 96.7359 40.5537 96.5801C41.2129 96.4437 41.7591 96.1013 42.1914 95.5518L42.3691 95.3038C42.8348 94.5952 42.9858 93.8708 42.8213 93.1309C42.6849 92.4716 42.3415 91.9255 41.792 91.4932L41.5439 91.3155Z" fill="black"/>
<path d="M33.7383 117.117L35.9912 118.124L36.4482 118.327L31.9316 128.445L15.0205 120.896L15.2236 120.439L16.3086 118.011L30.5088 124.35L33.7383 117.117ZM30.7627 125.01L16.5605 118.671L15.6807 120.644L31.6787 127.785L35.7881 118.58L33.9902 117.778L30.7627 125.01Z" fill="black"/>
<path d="M13.0088 125.879L13.4805 126.044L25.4795 130.266C27.0456 130.817 28.1833 131.703 28.8145 132.957L28.9287 133.195C29.4568 134.399 29.4077 135.794 28.8672 137.33C28.2953 138.956 27.384 140.114 26.0938 140.704L26.0898 140.706C24.8805 141.246 23.5373 141.264 22.0928 140.813L21.8027 140.718L9.33203 136.331L10.3809 133.35L22.8516 137.736C23.6806 138.028 24.3482 138.038 24.8896 137.84C25.3989 137.641 25.8219 137.189 26.1133 136.36C26.3632 135.65 26.3576 135.093 26.168 134.646L26.0762 134.461C25.783 133.954 25.2583 133.537 24.4307 133.246L11.96 128.859L13.0088 125.879ZM12.5977 128.554L24.5967 132.774C25.5021 133.093 26.1398 133.572 26.5088 134.21C26.8777 134.848 26.9034 135.621 26.585 136.526L26.4551 136.856C26.1319 137.591 25.6691 138.075 25.0674 138.309C24.3852 138.56 23.5911 138.527 22.6855 138.208L10.6865 133.987L9.96973 136.025L21.9688 140.246C23.3414 140.729 24.575 140.76 25.6689 140.34L25.8857 140.25C26.947 139.765 27.7487 138.83 28.291 137.446L28.3955 137.164C28.9424 135.609 28.934 134.283 28.3701 133.186C27.8465 132.143 26.9184 131.36 25.5859 130.838L25.3135 130.737L13.3145 126.516L12.5977 128.554Z" fill="black"/>
<path d="M8.00391 140.524L8.4873 140.652L10.874 141.28L10.7461 141.764L8.78418 149.218L13.457 150.448L15.2598 143.598L15.3877 143.114L15.8711 143.242L18.2578 143.87L18.1299 144.354L16.3389 151.157L23.375 153.011L23.8584 153.139L23.7305 153.622L23.0537 156.194L22.5703 156.066L5.12109 151.472L7.87598 141.008L8.00391 140.524ZM5.73145 151.115L22.6973 155.583L23.2471 153.494L15.7275 151.514L17.6465 144.227L15.7441 143.726L13.8125 151.06L8.17285 149.574L10.2627 141.637L8.35938 141.136L5.73145 151.115Z" fill="black"/>
<path d="M6.33409 157.145C7.12933 156.874 7.9995 156.804 8.93468 156.922L9.33897 156.984L9.83116 157.072L9.2755 160.183L8.78331 160.095C7.89305 159.936 7.24521 160.063 6.77354 160.392L6.76768 160.396L6.76085 160.4C6.27971 160.715 5.94154 161.245 5.79308 162.076C5.64438 162.909 5.76819 163.547 6.10167 164.042C6.38962 164.453 6.85586 164.766 7.56261 164.944L7.88097 165.013L15.7013 166.409C16.5869 166.567 17.2447 166.444 17.7345 166.116C18.2331 165.769 18.5755 165.215 18.7237 164.385C18.8722 163.553 18.7384 162.939 18.3956 162.478L18.3907 162.472C18.0884 162.051 17.6102 161.734 16.8995 161.555L16.5802 161.487L14.9464 161.195L14.3214 164.691L11.3995 164.17L12.5802 157.563L17.1358 158.376C18.0771 158.544 18.9037 158.865 19.6036 159.348L19.8956 159.565L19.8995 159.567C20.5492 160.095 21.0324 160.748 21.3468 161.518L21.4718 161.855L21.4737 161.862L21.5694 162.211C21.7659 163.036 21.7709 163.935 21.5987 164.899C21.402 166 21.0167 166.948 20.4288 167.724L20.4269 167.728C19.8397 168.489 19.0877 169.035 18.1817 169.36L18.17 169.365C17.3635 169.632 16.4874 169.7 15.5509 169.582L15.1456 169.52L7.34874 168.128C6.38281 167.955 5.54505 167.633 4.85069 167.149L4.56163 166.933L4.55577 166.928C3.91051 166.386 3.43518 165.726 3.1339 164.955L3.01476 164.618L3.01378 164.614C2.73073 163.683 2.69793 162.66 2.89464 161.559C3.09136 160.457 3.48343 159.516 4.08702 158.757C4.67524 157.994 5.42718 157.454 6.33409 157.145ZM9.25108 157.477C8.22728 157.294 7.30864 157.341 6.49522 157.618L6.19737 157.732C5.5166 158.019 4.94432 158.462 4.48155 159.063C3.93713 159.745 3.57244 160.607 3.38683 161.647L3.32726 162.031C3.21311 162.919 3.26833 163.732 3.49229 164.469C3.75105 165.295 4.21281 165.987 4.87706 166.544C5.54416 167.086 6.3972 167.45 7.43663 167.636L15.2335 169.027C16.2571 169.21 17.1837 169.165 18.0128 168.891C18.829 168.598 19.5016 168.108 20.0304 167.422C20.4955 166.808 20.8282 166.065 21.0284 165.192L21.1066 164.811C21.2922 163.771 21.2559 162.838 20.9972 162.012C20.7227 161.183 20.2513 160.497 19.5841 159.955C18.9012 159.411 18.0559 159.048 17.048 158.868L12.9845 158.143L11.9796 163.766L13.9171 164.111L14.5421 160.615L16.6681 160.995C17.6446 161.17 18.3543 161.564 18.797 162.18C19.2424 162.779 19.3818 163.544 19.2159 164.473C19.05 165.402 18.6517 166.087 18.0206 166.526C17.4709 166.898 16.788 167.04 15.9718 166.953L15.6134 166.901L7.79308 165.505C6.87739 165.341 6.20308 164.985 5.77061 164.437L5.68761 164.324C5.31654 163.774 5.17136 163.109 5.25206 162.329L5.30089 161.988C5.46681 161.059 5.86202 160.39 6.48741 159.982C7.02343 159.608 7.69912 159.464 8.51378 159.551L8.8712 159.603L9.25108 157.477Z" fill="black"/>
<path d="M1.49219 171.878L19.4307 173.59L19.9287 173.637L19.8818 174.135L19.6074 177.002L19.5742 177.354L7.10352 180.486C7.39435 180.5 7.68016 180.517 7.96094 180.536L8.87695 180.611L18.6719 181.546L19.1699 181.593L18.9238 184.169L18.877 184.667L0.938477 182.955L0.44043 182.908L0.487305 182.41L0.794922 179.192L1.13672 179.106L13.1436 176.071C12.886 176.052 12.6346 176.034 12.3896 176.014L11.4922 175.935L1.19922 174.952L1.44531 172.376L1.49219 171.878ZM1.74414 174.502L11.54 175.437C12.1134 175.491 12.7273 175.542 13.3818 175.588L15.2305 175.668C15.8083 175.675 16.298 175.681 16.6992 175.688L1.25879 179.591L0.985352 182.458L18.4268 184.122L18.625 182.043L8.8291 181.108C8.23992 181.052 7.62533 181.009 6.98535 180.98C6.3309 180.934 5.71503 180.9 5.13867 180.877C4.54631 180.853 4.05718 180.839 3.67188 180.834L19.1104 176.954L19.3838 174.087L1.94238 172.423L1.74414 174.502Z" fill="black"/>
<path d="M0.170898 187.981L0.670898 187.99L3.1377 188.03L3.08008 191.605L15.6621 191.812L15.7119 188.737L15.7207 188.237L16.2207 188.246L18.1885 188.278L18.6885 188.287L18.6797 188.786L18.5176 198.646L18.0176 198.637L15.5498 198.597L15.5576 198.097L15.6094 195.021L3.02637 194.813L2.96777 198.389L0.5 198.349L0 198.34L0.162109 188.481L0.170898 187.981ZM0.507812 197.849L2.47559 197.881L2.53418 194.306L16.1172 194.529L16.0576 198.104L18.0254 198.137L18.1797 188.778L16.2119 188.746L16.1533 192.321L2.57129 192.098L2.62988 188.522L0.662109 188.489L0.507812 197.849Z" fill="black"/>
<path d="M18.5879 202.269L18.6191 202.768L18.8252 205.994L18.5 206.133L7.00488 211.059C7.61543 210.99 8.20608 210.938 8.77637 210.901L18.5967 210.276L19.0947 210.244L19.2598 212.827L19.291 213.326L18.792 213.357L1.30762 214.471L0.808594 214.502L0.777344 214.003L0.571289 210.777L12.2695 205.744C11.6886 205.794 11.1387 205.837 10.6201 205.87L0.799805 206.494L0.300781 206.526L0.269531 206.027L0.136719 203.943L0.105469 203.444L0.604492 203.413L18.0889 202.3L18.5879 202.269ZM0.635742 203.912L0.768555 205.995L10.5889 205.371C11.1636 205.335 11.7781 205.287 12.4316 205.229C13.0682 205.157 13.6809 205.086 14.2695 205.017C14.8412 204.932 15.3255 204.861 15.7227 204.804L1.09277 211.098L1.27637 213.972L18.7607 212.858L18.6279 210.775L8.80762 211.4L7.9043 211.47C7.59753 211.497 7.28503 211.529 6.9668 211.565L6.0166 211.655C5.70991 211.687 5.41342 211.721 5.12695 211.755C4.53818 211.824 4.05307 211.887 3.67188 211.943L18.3037 205.674L18.1201 202.799L0.635742 203.912Z" fill="black"/>
<path d="M19.4707 215.478L19.877 218.278L19.9336 218.665L15.4922 220.474L16.1416 224.948L20.5254 225.381L20.915 225.42L20.9707 225.807L21.3809 228.632L2.36035 226.524L1.83203 222.885L19.4707 215.478ZM2.38281 223.196L2.7998 226.07L20.7939 228.063L20.4766 225.879L15.7031 225.408L14.9404 220.159L19.3818 218.35L19.0684 216.188L2.38281 223.196ZM13.8359 225.243L8.27441 224.692C7.75725 224.638 7.28162 224.593 6.84766 224.555L5.6709 224.465C4.96938 224.421 4.51317 224.398 4.30273 224.396C4.40339 224.366 4.56188 224.313 4.77734 224.237L5.59473 223.942C5.92482 223.822 6.29489 223.681 6.7041 223.521L8.0498 222.979L13.2012 220.873L13.8359 225.243ZM8.23926 223.442C7.68797 223.669 7.18529 223.868 6.73242 224.044C7.21238 224.085 7.74427 224.134 8.32715 224.195L13.249 224.682L12.7988 221.577L8.23926 223.442Z" fill="black"/>
<path d="M21.7666 230.511L21.8789 230.998L24.2373 241.312L6.18359 245.441L3.8252 235.128L3.71289 234.641L4.20117 234.528L6.60645 233.979L8.37793 241.722L12.6904 240.735L11.1064 233.811L13.9766 233.154L15.5605 240.078L20.6445 238.916L18.874 231.172L21.7666 230.511ZM19.4727 231.548L21.2441 239.292L15.1846 240.679L13.6006 233.753L11.7051 234.187L13.2891 241.111L8.00195 242.321L6.23047 234.577L4.3125 235.016L6.55957 244.842L23.6387 240.936L21.3906 231.109L19.4727 231.548Z" fill="black"/>
<path d="M25.0449 244.374L25.9814 247.342L19.4385 249.406C18.7567 249.621 17.9777 249.841 17.1025 250.066C16.2286 250.291 15.3346 250.505 14.4209 250.709C14.3072 250.735 14.1934 250.759 14.0811 250.784L19.0254 250.82L19.8203 253.342L19.9297 253.688L15.835 256.615C15.9249 256.58 16.0153 256.543 16.1064 256.507C16.9595 256.17 17.814 255.842 18.6719 255.521C19.5341 255.198 20.3443 254.917 21.1016 254.678L27.6436 252.614L28.5801 255.582L10.918 261.153L9.91602 257.976L9.80566 257.628L14.9561 253.974C15.2249 253.775 15.4969 253.584 15.7695 253.396C15.4395 253.41 15.1046 253.42 14.7656 253.424L8.49609 253.476L7.38281 249.945L25.0449 244.374ZM8.00977 250.272L8.8623 252.973L14.7607 252.924C15.3122 252.918 15.8513 252.899 16.3779 252.867C16.8893 252.84 17.2869 252.823 17.5703 252.817C17.3302 252.96 16.9951 253.175 16.5654 253.462L15.9023 253.91C15.6822 254.064 15.4629 254.221 15.2451 254.382L10.3926 257.825L11.2441 260.526L27.9531 255.256L27.3174 253.241L21.252 255.154C20.5043 255.39 19.7029 255.668 18.8477 255.988L17.5664 256.475C17.14 256.638 16.7142 256.804 16.2891 256.972C15.4234 257.312 14.6134 257.643 13.8594 257.965C13.0901 258.291 12.4196 258.587 11.8486 258.851L19.3438 253.492L18.6572 251.317L9.45117 251.252C10.0807 251.12 10.8221 250.97 11.6748 250.802C12.5075 250.623 13.3863 250.43 14.3105 250.223C14.765 250.121 15.2147 250.017 15.6592 249.91L16.9775 249.582C17.8464 249.358 18.6167 249.14 19.2881 248.929L25.3535 247.016L24.7188 245.002L8.00977 250.272Z" fill="black"/>
<path d="M33.2305 273.072C34.0667 273.103 34.8454 273.333 35.5596 273.759L35.8623 273.954L35.8691 273.958C36.5533 274.449 37.1271 275.116 37.5986 275.944L37.7949 276.309L37.9726 276.683C38.3617 277.554 38.5622 278.418 38.5596 279.27V279.273C38.5485 280.235 38.2779 281.124 37.75 281.929L37.7432 281.939L37.331 281.654C37.8067 280.929 38.0495 280.134 38.0596 279.269C38.0619 278.499 37.8814 277.704 37.5166 276.887L37.3486 276.535C36.8716 275.593 36.2809 274.87 35.5771 274.365C34.8591 273.868 34.0707 273.603 33.2119 273.571C32.3389 273.547 31.4457 273.767 30.5322 274.23L26.8496 276.094L29.4297 281.19L31.1855 280.301L29.581 277.132L31.5078 276.156C32.3928 275.708 33.1971 275.597 33.9209 275.822C34.6375 276.033 35.2093 276.56 35.6357 277.402C36.062 278.244 36.1555 279.031 35.916 279.762C35.6692 280.479 35.1028 281.061 34.2178 281.509L27.1309 285.098L26.8027 285.25C26.1016 285.545 25.4584 285.615 24.873 285.461L24.7393 285.421C24.1121 285.205 23.5953 284.762 23.1904 284.09L23.0244 283.787C22.5981 282.945 22.5117 282.173 22.7656 281.471C22.9981 280.761 23.5567 280.182 24.4414 279.734L23.4658 277.807C22.538 278.276 21.8326 278.867 21.3496 279.578L21.1797 279.848C20.8087 280.487 20.619 281.186 20.6103 281.943C20.5862 282.816 20.8131 283.724 21.29 284.666C21.767 285.608 22.3613 286.339 23.0723 286.857C23.6879 287.299 24.3657 287.564 25.1055 287.654L25.4268 287.683C26.2855 287.714 27.1859 287.491 28.1279 287.014L35.1943 283.437C36.122 282.967 36.8338 282.372 37.331 281.654L37.7432 281.939C37.1903 282.738 36.4077 283.383 35.4199 283.883L28.3535 287.46C27.4781 287.903 26.6152 288.15 25.7695 288.182H25.4004C24.5593 288.137 23.7826 287.897 23.0781 287.462L22.7803 287.264L22.7773 287.261C22.0894 286.759 21.5123 286.086 21.04 285.257L20.8437 284.892C20.337 283.891 20.0834 282.901 20.1103 281.929C20.1229 280.969 20.3994 280.087 20.9365 279.297C21.4761 278.503 22.2528 277.861 23.2402 277.361L23.6865 277.135L24.8877 279.508L25.1143 279.954L24.668 280.18C23.8611 280.588 23.4193 281.08 23.2402 281.626L23.2383 281.634L23.2353 281.641C23.04 282.181 23.0883 282.808 23.4697 283.562C23.852 284.317 24.335 284.752 24.8994 284.947C25.4449 285.124 26.1006 285.059 26.9053 284.651L33.9922 281.064C34.796 280.657 35.2468 280.161 35.4404 279.604C35.6052 279.099 35.581 278.54 35.3174 277.905L35.1894 277.628C34.8556 276.969 34.4492 276.572 33.9834 276.374L33.7803 276.302L33.7725 276.3C33.2074 276.124 32.5395 276.194 31.7334 276.603L30.2519 277.352L31.6309 280.075L31.8574 280.522L29.6553 281.636L29.209 281.862L26.1777 275.874L26.623 275.648L30.3066 273.783C31.2813 273.29 32.2563 273.045 33.2256 273.072H33.2305Z" fill="black"/>
<path d="M41.7158 284.296L43.4785 287.18L43.6621 287.481L43.4404 287.756L35.5693 297.472C36.0771 297.127 36.5745 296.806 37.0615 296.508L45.8838 291.115L47.4941 293.75L31.6924 303.409L29.7461 300.224L37.749 290.315C37.2576 290.631 36.7907 290.926 36.3467 291.197L27.5244 296.59L25.9141 293.955L41.7158 284.296ZM26.6006 294.121L27.6904 295.902L36.0859 290.771C36.5774 290.47 37.0991 290.142 37.6504 289.786C38.1797 289.425 38.6884 289.076 39.1768 288.74C39.6431 288.399 40.0387 288.11 40.3633 287.874L30.3564 300.264L31.8584 302.722L46.8066 293.584L45.7178 291.803L37.3223 296.935L36.5557 297.417C36.2969 297.585 36.0353 297.759 35.7705 297.939C35.2192 298.295 34.7062 298.637 34.2314 298.965C33.7432 299.301 33.3431 299.582 33.0322 299.81L43.0518 287.44L41.5498 284.983L26.6006 294.121Z" fill="black"/>
<path d="M49.5186 296.755L55.6162 305.13L53.2168 306.877L51.1113 303.985L40.9385 311.393L42.749 313.88L43.0439 314.284L40.6445 316.031L34.5459 307.655L36.542 306.203L36.9453 305.908L37.2402 306.312L39.0498 308.799L49.2236 301.393L47.1191 298.502L49.5186 296.755ZM47.8174 298.611L49.9219 301.503L38.9404 309.498L36.8359 306.607L35.2451 307.766L40.7539 315.332L42.3447 314.174L40.2402 311.283L51.2217 303.287L53.3271 306.179L54.918 305.021L49.4082 297.453L47.8174 298.611Z" fill="black"/>
<path d="M57.9004 308.034L59.9609 310.431L53.8447 315.688L56.8545 319.188L62.9697 313.931L65.0303 316.327L50.9873 328.4L48.9268 326.005L54.6045 321.123L51.5947 317.622L45.918 322.505L43.8574 320.108L57.9004 308.034ZM44.5625 320.162L45.9707 321.8L51.6484 316.918L55.3096 321.176L49.6318 326.058L51.04 327.695L64.3252 316.273L62.917 314.636L56.8018 319.894L53.1406 315.635L59.2559 310.377L57.8477 308.739L44.5625 320.162Z" fill="black"/>
<path d="M70.1123 321.56L72.001 323.433L72.3555 323.785L61.3857 334.842L64.4385 337.871L64.793 338.224L63.0557 339.976L62.7031 340.33L62.3477 339.979L53.999 331.696L53.6445 331.344L53.9971 330.989L55.3828 329.592L55.7344 329.236L59.1416 332.617L69.7607 321.915L70.1123 321.56ZM59.1455 333.324L55.7373 329.943L54.3516 331.341L62.7002 339.623L64.0859 338.227L60.6787 334.846L71.6484 323.788L70.1152 322.267L59.1455 333.324Z" fill="black"/>
<path d="M77.3906 328.623L85.8613 335.766L73.9219 349.924L65.4521 342.78L67.3652 340.512L73.4385 345.633L76.29 342.251L70.8594 337.671L72.7568 335.421L78.1875 339.999L81.5498 336.013L75.4775 330.892L77.3906 328.623ZM76.1826 330.832L82.2549 335.953L78.248 340.705L72.8174 336.125L71.5635 337.611L76.9951 342.191L73.498 346.338L67.4248 341.216L66.1562 342.721L73.8623 349.219L85.1562 335.825L77.4512 329.327L76.1826 330.832Z" fill="black"/>
<path d="M88.3486 337.728L90.8809 339.536L86.8936 345.118C86.478 345.7 85.9878 346.344 85.4238 347.051C85.142 347.404 84.8545 347.758 84.5615 348.112L83.667 349.178C83.5913 349.267 83.5143 349.354 83.4395 349.441L87.4131 346.497L87.709 346.709L89.8594 348.245L89.75 348.591L88.3457 353.048C88.3966 352.965 88.4472 352.88 88.499 352.796C88.9784 352.014 89.4646 351.237 89.957 350.465C90.4519 349.689 90.9301 348.977 91.3916 348.331L95.3789 342.749L97.5039 344.268L97.9111 344.558L87.4375 359.222L87.1465 359.628L84.1387 357.479L84.25 357.133L86.0576 351.464C86.1531 351.143 86.2541 350.826 86.3594 350.513C86.1038 350.722 85.8436 350.932 85.5752 351.139L85.5742 351.14L80.5957 354.949L77.584 352.798L77.874 352.391L88.0576 338.134L88.3486 337.728ZM78.2812 352.682L80.5859 354.327L85.2695 350.742C85.7066 350.406 86.1266 350.066 86.5283 349.724C86.9206 349.395 87.229 349.143 87.4521 348.968C87.3461 349.226 87.2073 349.6 87.0361 350.087C86.8558 350.587 86.6885 351.097 86.5342 351.615L84.7256 357.285L87.0303 358.931L97.2139 344.674L95.4951 343.446L91.7988 348.622L91.4531 349.113C91.1048 349.616 90.7461 350.157 90.3779 350.734L89.6465 351.893C89.4043 352.28 89.1637 352.668 88.9248 353.058L88.2227 354.216C87.9986 354.591 87.7846 354.957 87.5801 355.312C87.1616 356.036 86.8034 356.675 86.5059 357.229L89.2734 348.44L87.418 347.115L80.0225 352.598C80.4465 352.114 80.9481 351.548 81.5283 350.901C82.0863 350.258 82.6724 349.575 83.2861 348.854C83.5885 348.499 83.8855 348.146 84.1768 347.793L85.0332 346.739C85.453 346.213 85.8299 345.723 86.165 345.27L86.4863 344.828L90.1826 339.652L88.4648 338.425L78.2812 352.682Z" fill="black"/>
<path d="M102.379 347.847H102.378C103.208 347.89 104.043 348.146 104.881 348.595L105.24 348.799C106.08 349.303 106.755 349.897 107.247 350.587L107.446 350.889L107.449 350.893L107.62 351.201C107.938 351.825 108.109 352.492 108.133 353.195V353.563H108.132C108.074 354.523 107.749 355.478 107.181 356.425L103.104 363.215C102.529 364.174 101.838 364.912 101.023 365.402L101.017 365.407C100.293 365.826 99.5186 366.044 98.7011 366.06L98.3486 366.054L98.3437 366.053C97.3834 365.995 96.4212 365.665 95.4618 365.089C94.5041 364.514 93.7663 363.824 93.2763 363.011C92.7722 362.188 92.5414 361.294 92.5908 360.341C92.6262 359.384 92.9418 358.43 93.5097 357.484L97.5986 350.673C98.1684 349.723 98.8671 348.989 99.7031 348.495C100.52 348.005 101.417 347.789 102.379 347.847ZM102.349 348.346C101.485 348.293 100.688 348.487 99.9579 348.926L99.6806 349.102C99.0464 349.54 98.4956 350.15 98.0273 350.93L93.9384 357.741C93.4032 358.633 93.1201 359.508 93.0898 360.367C93.0458 361.218 93.2505 362.012 93.7031 362.75C94.142 363.48 94.8142 364.117 95.7197 364.66C96.625 365.204 97.5097 365.501 98.374 365.554C99.1182 365.592 99.8219 365.45 100.484 365.125L100.766 364.975C101.404 364.59 101.972 364.027 102.468 363.286L102.676 362.958L106.752 356.167C107.287 355.275 107.58 354.397 107.633 353.533C107.663 352.674 107.459 351.879 107.02 351.149C106.624 350.504 106.055 349.932 105.312 349.436L104.983 349.227C104.078 348.684 103.199 348.39 102.349 348.346ZM101.723 350.462C102.419 350.264 103.173 350.408 103.982 350.894C104.778 351.371 105.259 351.968 105.427 352.685C105.586 353.414 105.41 354.205 104.899 355.056L100.824 361.846L100.628 362.149C100.159 362.821 99.6139 363.24 98.9921 363.405C98.3631 363.583 97.7043 363.501 97.0165 363.157L96.7197 362.994C95.9104 362.508 95.4334 361.904 95.288 361.183C95.1208 360.466 95.2921 359.683 95.8027 358.832L99.8788 352.042C100.358 351.244 100.928 350.731 101.59 350.503L101.723 350.462ZM102.06 350.898L101.859 350.942C101.299 351.101 100.775 351.521 100.308 352.299L96.2314 359.09C95.7641 359.868 95.6459 360.518 95.7743 361.068L95.7783 361.084C95.8747 361.563 96.1652 362.004 96.7216 362.398L96.9775 362.565L97.2382 362.709C97.838 363.009 98.3703 363.062 98.8564 362.925L98.8632 362.923L99.0663 362.855C99.5381 362.669 99.9862 362.271 100.395 361.589L104.471 354.798C104.938 354.02 105.062 353.36 104.938 352.791H104.937C104.823 352.311 104.524 351.873 103.976 351.486L103.726 351.322C103.088 350.939 102.54 350.822 102.06 350.898Z" fill="black"/>
<path d="M114.714 354.857C115.576 354.854 116.451 355.053 117.337 355.439L117.718 355.615C118.664 356.083 119.447 356.641 120.051 357.297L120.299 357.584L120.301 357.587C120.841 358.266 121.186 359.013 121.326 359.822L121.374 360.174L121.395 360.529C121.414 361.362 121.214 362.203 120.814 363.047L120.597 363.506L118.205 362.324L117.757 362.104L117.977 361.655C118.312 360.979 118.334 360.376 118.094 359.806C117.868 359.294 117.432 358.827 116.731 358.424L116.414 358.255C115.581 357.844 114.896 357.759 114.328 357.914L114.322 357.916C113.75 358.063 113.294 358.44 112.957 359.121C112.722 359.598 112.631 360.064 112.673 360.528L112.699 360.728L112.701 360.737C112.768 361.182 112.97 361.596 113.333 361.982L113.498 362.147L113.505 362.152L115.306 363.871C116.22 364.735 116.821 365.714 117.081 366.808L117.129 367.028L117.13 367.034L117.165 367.254C117.317 368.352 117.122 369.439 116.597 370.502C116.145 371.416 115.54 372.131 114.773 372.621L114.771 372.622C113.992 373.113 113.123 373.359 112.178 373.364L112.179 373.365C112.177 373.365 112.175 373.364 112.173 373.364L112.171 373.365L112.17 373.364C111.212 373.383 110.236 373.138 109.249 372.65C107.784 371.927 106.767 370.908 106.264 369.58C105.752 368.264 105.854 366.892 106.52 365.504L106.739 365.049L109.577 366.45L109.355 366.898C109.063 367.491 109.004 368.003 109.127 368.46L109.19 368.652L109.193 368.66L109.195 368.668C109.356 369.117 109.703 369.525 110.303 369.875L110.575 370.022C111.335 370.397 111.961 370.479 112.483 370.35C112.975 370.218 113.376 369.886 113.679 369.274C113.921 368.784 114.014 368.31 113.973 367.846L113.946 367.648C113.868 367.191 113.654 366.761 113.28 366.354L113.109 366.181L113.106 366.178L111.297 364.428C110.345 363.516 109.751 362.463 109.547 361.272C109.343 360.086 109.536 358.912 110.102 357.765C110.563 356.832 111.196 356.102 112.006 355.6C112.811 355.1 113.719 354.855 114.714 354.857ZM114.713 355.357C113.804 355.355 112.989 355.577 112.269 356.024L112.006 356.202C111.408 356.639 110.923 357.233 110.551 357.986L110.456 358.186C110.006 359.181 109.867 360.182 110.04 361.188C110.224 362.26 110.758 363.219 111.643 364.066L113.454 365.818C114 366.338 114.329 366.919 114.439 367.563C114.55 368.206 114.446 368.851 114.127 369.496L113.987 369.753C113.644 370.321 113.185 370.682 112.609 370.835L112.353 370.884C111.835 370.955 111.271 370.864 110.662 370.61L110.353 370.47C109.507 370.052 108.964 369.507 108.725 368.836C108.464 368.172 108.525 367.452 108.907 366.678L106.971 365.721C106.354 367.005 106.275 368.232 106.731 369.403C107.181 370.589 108.094 371.522 109.471 372.202C110.403 372.663 111.302 372.884 112.168 372.865C113.027 372.861 113.806 372.639 114.505 372.199C115.182 371.767 115.73 371.127 116.148 370.28C116.665 369.233 116.829 368.181 116.638 367.123C116.445 366.124 115.941 365.215 115.127 364.396L114.96 364.233L113.159 362.514C112.62 362.015 112.302 361.448 112.206 360.812C112.109 360.249 112.175 359.69 112.401 359.137L112.509 358.899C112.874 358.16 113.392 357.684 114.061 357.471L114.197 357.432C114.919 357.235 115.732 357.36 116.636 357.807C117.597 358.281 118.236 358.883 118.555 359.611C118.858 360.332 118.815 361.087 118.426 361.876L120.362 362.833C120.734 362.049 120.912 361.284 120.895 360.54L120.876 360.223C120.793 359.379 120.471 358.603 119.909 357.898C119.405 357.274 118.727 356.728 117.873 356.26L117.496 356.064C116.535 355.589 115.607 355.353 114.713 355.357Z" fill="black"/>
<path d="M141.269 365.945C142.097 365.792 142.977 365.841 143.9 366.075L144.299 366.187C145.369 366.514 146.263 367.011 146.963 367.688L146.966 367.691C147.651 368.365 148.103 369.177 148.317 370.115L148.32 370.128L148.38 370.487C148.489 371.333 148.394 372.222 148.11 373.149L145.791 380.722C145.462 381.794 144.96 382.677 144.268 383.345L144.264 383.351L143.922 382.985C144.462 382.463 144.885 381.783 145.189 380.944L145.312 380.575L147.633 373.002C147.937 372.008 148.003 371.083 147.83 370.227C147.637 369.381 147.232 368.654 146.615 368.047C146.062 367.511 145.364 367.092 144.521 366.788L144.152 366.665C143.143 366.356 142.212 366.28 141.36 366.438C140.504 366.61 139.767 366.995 139.149 367.592C138.527 368.204 138.065 369.001 137.766 369.98L136.556 373.927L142.017 375.6L142.594 373.718L139.197 372.678L139.83 370.612C140.102 369.723 140.539 369.09 141.141 368.713L141.263 368.642C141.911 368.272 142.687 368.225 143.59 368.501C144.492 368.778 145.123 369.255 145.484 369.935C145.83 370.609 145.858 371.422 145.567 372.37L143.24 379.965C142.95 380.913 142.475 381.563 141.815 381.913L141.687 381.975C141.127 382.224 140.492 382.267 139.782 382.106L139.449 382.017C138.547 381.74 137.93 381.267 137.599 380.597C137.249 379.937 137.22 379.133 137.511 378.185L135.445 377.552C135.141 378.546 135.077 379.464 135.255 380.305C135.432 381.146 135.829 381.87 136.446 382.478C137.059 383.1 137.87 383.567 138.88 383.876C139.763 384.147 140.592 384.241 141.366 384.157L141.694 384.11C142.546 383.953 143.288 383.578 143.922 382.985L144.264 383.351C143.561 384.008 142.73 384.427 141.785 384.602L141.781 384.603C140.942 384.751 140.057 384.701 139.132 384.466L138.733 384.354C137.661 384.025 136.772 383.521 136.09 382.828C135.492 382.238 135.078 381.544 134.851 380.754L134.766 380.408C134.567 379.469 134.642 378.464 134.967 377.405L135.113 376.928L138.135 377.854L137.988 378.331C137.756 379.088 137.765 379.687 137.951 380.165L138.042 380.362L138.045 380.369L138.049 380.376C138.271 380.827 138.67 381.189 139.307 381.439L139.596 381.539L139.891 381.618C140.566 381.772 141.121 381.706 141.587 381.468C142.092 381.197 142.499 380.68 142.763 379.818L145.089 372.224C145.352 371.363 145.31 370.695 145.043 370.169C144.793 369.699 144.373 369.33 143.731 369.079L143.443 368.979C142.636 368.731 142.01 368.791 141.511 369.075L141.504 369.079C140.985 369.364 140.573 369.895 140.308 370.759L139.822 372.346L143.219 373.387L142.349 376.225L135.932 374.258L137.287 369.833C137.607 368.788 138.107 367.916 138.799 367.235L138.802 367.233C139.489 366.568 140.314 366.139 141.262 365.947L141.269 365.945Z" fill="black"/>
<path d="M152.773 368.896L153.262 369.003L156.074 369.621L156.42 369.696L158.025 382.453C158.128 381.848 158.241 381.267 158.363 380.709L160.473 371.098L160.579 370.609L163.596 371.271L159.626 389.36L159.138 389.254L156.324 388.637L155.98 388.561L155.936 388.211L154.37 375.927C154.258 376.499 154.148 377.04 154.036 377.548L151.819 387.647L148.804 386.985L148.91 386.497L152.773 368.896ZM149.398 386.604L151.438 387.052L153.548 377.44C153.61 377.159 153.671 376.868 153.733 376.566L153.92 375.631C154.026 374.999 154.127 374.39 154.223 373.805C154.299 373.232 154.364 372.747 154.419 372.35L156.432 388.147L159.244 388.766L163 371.652L160.961 371.205L158.852 380.816L158.669 381.704C158.611 382.007 158.555 382.316 158.502 382.632C158.377 383.276 158.269 383.883 158.177 384.452C158.081 385.037 158.007 385.52 157.956 385.902L155.968 370.109L153.154 369.492L149.398 386.604Z" fill="black"/>
<path d="M167.165 371.889L167.661 371.955L176.937 373.209L177.433 373.275L177.035 376.217L173.49 375.737L171.806 388.208L175.351 388.688L175.02 391.133L174.953 391.629L164.687 390.242L164.753 389.746L165.017 387.796L165.083 387.301L165.579 387.367L168.627 387.779L170.312 375.309L167.264 374.896L166.768 374.83L167.099 372.384L167.165 371.889ZM167.33 374.401L170.874 374.88L169.056 388.342L165.512 387.863L165.249 389.813L174.524 391.066L174.788 389.116L171.244 388.638L173.062 375.176L176.606 375.654L176.87 373.704L167.594 372.451L167.33 374.401Z" fill="black"/>
<path d="M184.992 373.847L188.147 374.019L187.3 389.57L191.595 389.806L192.094 389.832L191.933 392.796L179.191 392.103L179.353 389.139L184.145 389.399L184.992 373.847ZM184.617 389.926L179.824 389.665L179.718 391.631L191.46 392.27L191.567 390.305L186.774 390.044L187.621 374.49L185.464 374.373L184.617 389.926Z" fill="black"/>
<path d="M206.321 374.011L206.781 392.55L206.281 392.562L195.465 392.83L195.403 390.362L195.392 389.863L203.597 389.659L203.477 384.828L196.396 385.005L195.896 385.017L195.821 382.05L203.355 381.862L203.175 374.589L203.163 374.09L206.321 374.011ZM203.675 374.577L203.867 382.351L196.334 382.537L196.383 384.505L203.965 384.316L204.108 390.146L195.903 390.351L195.952 392.317L206.269 392.062L205.834 374.523L203.675 374.577Z" fill="black"/>
<path d="M218.955 391.449L215.683 391.792L215.298 391.833L208.599 373.913L211.803 373.577L213.433 378.088L217.93 377.616L218.591 372.866L218.979 372.825L221.819 372.528L218.955 391.449ZM219.032 373.322L218.371 378.073L213.097 378.626L211.466 374.115L209.293 374.343L215.631 391.295L218.519 390.992L221.228 373.093L219.032 373.322ZM217.36 385.467C217.211 386.496 217.101 387.36 217.029 388.06L216.944 388.925C216.924 389.152 216.911 389.319 216.906 389.424C216.88 389.322 216.833 389.162 216.766 388.944L216.504 388.115C216.396 387.781 216.271 387.405 216.127 386.99L215.64 385.623L213.74 380.393L218.132 379.933L217.36 385.467ZM214.428 380.822L216.109 385.452C216.313 386.012 216.492 386.523 216.65 386.982C216.71 386.505 216.781 385.977 216.865 385.398L217.548 380.496L214.428 380.822Z" fill="black"/>
<path d="M234.792 370.147L238.193 388.353L232.37 389.44C231.281 389.644 230.261 389.6 229.321 389.291C228.503 389.035 227.799 388.61 227.217 388.017L226.975 387.752C226.425 387.108 226.046 386.331 225.826 385.435L225.742 385.043C225.508 383.788 225.634 382.621 226.144 381.565C226.555 380.688 227.177 379.983 227.995 379.45L222.834 372.382L226.114 371.769L226.432 371.71L231.101 378.405L233.052 378.041L231.687 370.728L234.792 370.147ZM232.27 371.128L233.636 378.441L230.876 378.957L226.206 372.261L223.706 372.728L228.726 379.603C227.746 380.111 227.036 380.838 226.594 381.783C226.136 382.731 226.016 383.787 226.233 384.951C226.419 385.942 226.793 386.768 227.355 387.428C227.918 388.087 228.623 388.55 229.47 388.814C230.214 389.06 231.024 389.125 231.899 389.01L232.278 388.949L237.61 387.953L234.393 370.73L232.27 371.128ZM235.13 386.438L231.922 387.038L231.597 387.085C230.906 387.156 230.295 387.025 229.765 386.69L229.644 386.609C229.086 386.215 228.706 385.638 228.504 384.878L228.428 384.541C228.257 383.629 228.387 382.84 228.815 382.174C229.247 381.524 229.904 381.116 230.784 380.951L233.993 380.352L235.13 386.438ZM230.876 381.443C230.11 381.587 229.581 381.927 229.235 382.444C228.887 382.985 228.768 383.64 228.919 384.449C229.054 385.174 229.339 385.695 229.749 386.056L229.933 386.201L230.129 386.325C230.6 386.59 231.157 386.673 231.83 386.547L234.546 386.039L233.593 380.936L230.876 381.443Z" fill="black"/>
<path d="M243.207 367.741C244.152 367.483 245.052 367.405 245.901 367.522L246.262 367.585L246.266 367.586C247.088 367.764 247.816 368.125 248.442 368.668L248.704 368.912L248.713 368.921C249.3 369.535 249.737 370.297 250.033 371.193L250.151 371.586L252.24 379.225L252.34 379.628C252.544 380.559 252.556 381.438 252.357 382.256L252.355 382.264C252.113 383.195 251.636 383.993 250.931 384.646L250.928 384.649C250.208 385.304 249.299 385.773 248.22 386.068C247.14 386.363 246.122 386.412 245.178 386.193C244.354 386.015 243.63 385.651 243.014 385.102L242.757 384.856C242.087 384.169 241.613 383.279 241.321 382.211L241.189 381.728L244.237 380.895L244.369 381.378C244.608 382.25 245.001 382.78 245.5 383.065L245.514 383.073C246.004 383.373 246.628 383.451 247.442 383.228C248.258 383.005 248.781 382.62 249.085 382.106C249.333 381.67 249.417 381.114 249.274 380.399L249.199 380.082L247.103 372.419C246.866 371.553 246.474 371.012 245.969 370.71C245.446 370.423 244.8 370.358 243.984 370.581C243.165 370.805 242.665 371.185 242.392 371.68C242.143 372.133 242.062 372.702 242.205 373.421L242.28 373.738L242.412 374.221L239.364 375.054L239.232 374.571C238.944 373.517 238.9 372.513 239.121 371.568L239.122 371.564C239.348 370.635 239.814 369.832 240.513 369.163L240.518 369.157L240.793 368.921C241.453 368.389 242.263 367.999 243.207 367.741ZM246.16 368.074C245.298 367.895 244.357 367.945 243.339 368.224L242.966 368.335C242.117 368.612 241.414 369.009 240.858 369.524C240.227 370.128 239.81 370.847 239.607 371.682C239.409 372.533 239.445 373.452 239.715 374.439L241.798 373.87C241.536 372.913 241.588 372.102 241.954 371.438C242.264 370.875 242.788 370.462 243.523 370.201L243.852 370.099C244.763 369.85 245.55 369.908 246.214 370.273C246.867 370.659 247.324 371.33 247.586 372.287L249.682 379.95C249.943 380.907 249.888 381.71 249.518 382.358L249.443 382.478C249.051 383.067 248.428 383.477 247.574 383.711L247.239 383.789C246.472 383.937 245.81 383.841 245.253 383.5C244.604 383.13 244.149 382.466 243.888 381.51L241.804 382.079C242.078 383.082 242.515 383.892 243.115 384.508C243.715 385.123 244.438 385.523 245.284 385.706C246.028 385.88 246.836 385.871 247.709 385.68L248.088 385.586C248.979 385.342 249.729 384.978 250.339 384.494L250.592 384.279C251.148 383.764 251.544 383.153 251.78 382.446L251.872 382.138C252.05 381.407 252.043 380.606 251.851 379.734L251.759 379.357L249.669 371.718C249.395 370.715 248.955 369.898 248.351 369.266C247.736 368.655 247.006 368.257 246.16 368.074Z" fill="black"/>
<path d="M272.736 363.533C273.548 363.162 274.369 363.093 275.174 363.349L275.335 363.404C276.137 363.703 276.739 364.261 277.138 365.044L277.215 365.204C277.615 366.08 277.67 366.956 277.343 367.802C277.023 368.657 276.41 369.287 275.544 369.683C274.666 370.084 273.786 370.139 272.938 369.809V369.808C272.088 369.501 271.464 368.885 271.065 368.012C270.67 367.145 270.617 366.269 270.936 365.413C271.243 364.559 271.86 363.933 272.736 363.533ZM275.16 363.873C274.439 363.604 273.7 363.643 272.943 363.988L272.667 364.129C272.048 364.477 271.628 364.963 271.405 365.588C271.136 366.309 271.175 367.048 271.52 367.805C271.873 368.576 272.406 369.088 273.12 369.343C273.738 369.584 274.381 369.584 275.049 369.345L275.337 369.227C276.093 368.882 276.606 368.349 276.875 367.628C277.15 366.922 277.112 366.182 276.76 365.411C276.457 364.749 276.011 364.274 275.422 363.985L275.16 363.873Z" fill="black"/>
<path d="M296.61 343.331L300.475 349.093L311.556 355.606L309.041 357.293L308.781 357.468L308.51 357.31L301.609 353.268C301.441 353.169 301.284 353.072 301.139 352.981C301.165 353.151 301.193 353.331 301.221 353.524L302.447 361.715L302.185 361.892L299.67 363.578L297.85 350.854L293.985 345.091L296.194 343.609L296.61 343.331ZM294.68 345.228L298.328 350.669L300.052 362.72L301.906 361.477L300.727 353.599C300.663 353.159 300.604 352.784 300.55 352.474C300.491 352.186 300.44 351.98 300.396 351.855C300.493 351.944 300.665 352.07 300.909 352.233C301.163 352.41 301.48 352.611 301.862 352.836L308.763 356.878L310.616 355.635L300.122 349.466L296.474 344.024L294.68 345.228Z" fill="black"/>
<path d="M311.031 332.468L322.535 346.982L313.852 353.864L312.318 351.931L312.008 351.538L318.233 346.604L315.484 343.137L309.918 347.55L308.09 345.242L313.656 340.829L310.416 336.741L304.191 341.677L302.348 339.351L311.031 332.468ZM303.05 339.432L304.272 340.975L310.498 336.04L314.359 340.911L308.792 345.324L309.999 346.848L315.566 342.435L318.936 346.686L312.71 351.62L313.933 353.162L321.832 346.901L310.95 333.171L303.05 339.432Z" fill="black"/>
<path d="M321.791 322.629L322.133 322.994L334.09 335.8L334.431 336.166L331.702 338.713L331.39 338.551L320.389 332.866C320.569 333.051 320.743 333.231 320.913 333.408L321.532 334.062L328.248 341.254L328.589 341.62L326.697 343.386L326.332 343.728L313.692 330.19L314.059 329.85L316.163 327.884L316.421 327.644L316.734 327.806L327.835 333.561C327.396 333.133 326.98 332.711 326.591 332.294L319.534 324.736L321.426 322.971L321.791 322.629ZM320.241 324.761L326.956 331.953C327.36 332.386 327.793 332.825 328.253 333.271C328.712 333.739 329.15 334.173 329.566 334.572C329.994 334.983 330.35 335.318 330.636 335.577L316.505 328.249L314.399 330.215L326.356 343.021L327.883 341.596L321.167 334.403C320.774 333.982 320.348 333.538 319.889 333.069C319.429 332.623 318.984 332.195 318.557 331.784C318.128 331.396 317.766 331.066 317.47 330.796L331.619 338.106L333.724 336.142L321.767 323.336L320.241 324.761Z" fill="black"/>
<path d="M331.521 312.158L345.203 324.64L341.211 329.017C340.462 329.837 339.618 330.417 338.679 330.736C337.874 331.023 337.059 331.107 336.239 330.984L335.887 330.919C335.06 330.736 334.289 330.344 333.574 329.761L333.271 329.5C332.327 328.64 331.725 327.632 331.496 326.482C331.296 325.534 331.367 324.596 331.7 323.678L323.322 321.146L325.789 318.441L326.096 318.542L333.55 320.973L334.887 319.507L329.392 314.493L329.729 314.123L331.521 312.158ZM330.098 314.46L335.594 319.475L333.702 321.549L325.94 319.017L324.227 320.896L332.375 323.359C331.9 324.355 331.771 325.364 331.987 326.385C332.193 327.417 332.733 328.332 333.607 329.13C334.352 329.809 335.148 330.243 335.995 330.431C336.842 330.618 337.683 330.562 338.519 330.264C339.26 330.012 339.946 329.576 340.575 328.956L340.841 328.68L344.497 324.672L331.554 312.864L330.098 314.46ZM341.604 324.958L339.405 327.369L339.175 327.603C338.627 328.112 338.012 328.377 337.329 328.398L337.183 328.399C336.553 328.386 335.951 328.154 335.376 327.704L335.112 327.481C334.427 326.856 334.054 326.148 333.995 325.358C333.954 324.677 334.162 324.039 334.619 323.447L334.831 323.196L337.03 320.785L341.604 324.958ZM335.2 323.533C334.675 324.109 334.459 324.699 334.494 325.32C334.536 325.881 334.77 326.407 335.235 326.901L335.449 327.111C336.072 327.679 336.689 327.919 337.313 327.899C337.938 327.88 338.509 327.61 339.036 327.032L340.898 324.99L337.062 321.491L335.2 323.533Z" fill="black"/>
<path d="M340.568 302.779C341.974 302.641 343.336 303.114 344.638 304.125L355.08 312.233L353.142 314.729L342.7 306.621C342.007 306.082 341.377 305.86 340.801 305.877C340.254 305.904 339.71 306.2 339.171 306.894C338.643 307.574 338.494 308.169 338.605 308.708C338.722 309.282 339.088 309.843 339.78 310.381L350.223 318.489L348.284 320.984L337.843 312.877C336.531 311.858 335.732 310.656 335.53 309.267C335.316 307.871 335.799 306.475 336.864 305.103C337.921 303.742 339.154 302.932 340.565 302.78L340.568 302.779ZM344.331 304.52C343.105 303.569 341.867 303.154 340.617 303.277C339.38 303.41 338.261 304.121 337.26 305.41L337.077 305.653C336.2 306.869 335.849 308.048 336.024 309.191C336.202 310.423 336.911 311.52 338.149 312.481L348.196 320.283L349.521 318.577L339.474 310.775C338.81 310.26 338.381 309.694 338.185 309.076L338.115 308.808C337.986 308.176 338.138 307.53 338.572 306.871L338.776 306.588C339.375 305.817 340.043 305.414 340.779 305.378C341.506 305.355 342.249 305.638 343.007 306.226L353.054 314.027L354.378 312.321L344.331 304.52Z" fill="black"/>
<path d="M349.68 290.726L350.034 290.739L350.047 290.74C351.003 290.835 351.945 291.196 352.869 291.8L359.5 296.131C360.319 296.666 360.967 297.283 361.424 297.987L361.607 298.294L361.611 298.301L361.767 298.62C362.1 299.371 362.231 300.165 362.156 300.992L362.155 300.996C362.061 301.953 361.695 302.902 361.083 303.839C360.472 304.774 359.754 305.485 358.923 305.943C358.082 306.416 357.18 306.614 356.229 306.528V306.527C355.394 306.465 354.569 306.188 353.757 305.716L353.409 305.501L346.758 301.157C345.831 300.552 345.124 299.825 344.662 298.971V298.97C344.204 298.136 344.021 297.234 344.115 296.276L344.16 295.921C344.295 295.093 344.641 294.269 345.176 293.449C345.788 292.512 346.509 291.796 347.348 291.324L347.351 291.321C348.079 290.921 348.858 290.722 349.68 290.726ZM349.997 291.238C349.14 291.175 348.339 291.349 347.593 291.76C346.838 292.184 346.171 292.839 345.594 293.723L345.39 294.053C344.939 294.823 344.68 295.579 344.613 296.321C344.528 297.183 344.691 297.987 345.101 298.732C345.517 299.501 346.16 300.17 347.031 300.738L353.683 305.082C354.553 305.651 355.416 305.967 356.273 306.03C357.122 306.107 357.924 305.932 358.679 305.508C359.425 305.097 360.087 304.45 360.664 303.565C361.169 302.792 361.486 302.027 361.614 301.271L361.658 300.947C361.734 300.099 361.571 299.295 361.169 298.535C360.809 297.883 360.269 297.294 359.548 296.771L359.226 296.55L352.596 292.219C351.725 291.65 350.859 291.323 349.997 291.238ZM349.066 293.41C349.802 293.279 350.585 293.485 351.415 294.027L358.046 298.358C358.876 298.901 359.372 299.531 359.534 300.248C359.71 300.974 359.544 301.726 359.036 302.503L358.838 302.783C358.363 303.401 357.808 303.762 357.172 303.865C356.54 303.988 355.867 303.848 355.152 303.448L354.844 303.261L348.213 298.93C347.434 298.421 346.943 297.832 346.74 297.162L346.703 297.027C346.554 296.411 346.667 295.762 347.044 295.08L347.222 294.785C347.729 294.008 348.344 293.55 349.066 293.41ZM351.142 294.445C350.385 293.951 349.733 293.802 349.161 293.901L348.955 293.953C348.478 294.103 348.038 294.45 347.641 295.059C347.234 295.681 347.094 296.224 347.152 296.706L347.189 296.909C347.309 297.405 347.63 297.88 348.218 298.323L348.486 298.512L355.117 302.843C355.877 303.339 356.522 303.482 357.077 303.374L357.085 303.372L357.092 303.371C357.643 303.282 358.156 302.937 358.618 302.23C359.013 301.625 359.151 301.08 359.088 300.578L359.049 300.365L359.047 300.358C358.938 299.876 358.626 299.407 358.04 298.965L357.772 298.776L351.142 294.445Z" fill="black"/>
<path d="M356.292 277.487C357.645 277.076 359.047 277.252 360.474 277.96L360.759 278.108L361.198 278.348L360.959 278.786L359.687 281.123L359.248 280.884C358.385 280.414 357.655 280.306 357.027 280.471C356.407 280.656 355.868 281.113 355.427 281.924C355.039 282.637 354.926 283.256 355.03 283.805L355.088 284.036C355.259 284.588 355.65 285.086 356.323 285.517L356.629 285.697L365.422 290.483L367.431 286.794L369.599 287.974L370.037 288.213L369.799 288.652L366.758 294.238L366.519 294.678L355.118 288.473C353.593 287.643 352.589 286.501 352.183 285.038C351.768 283.589 352.02 282.075 352.862 280.527C353.712 278.967 354.849 277.926 356.292 277.487ZM360.52 278.548C359.087 277.768 357.725 277.573 356.437 277.965C355.149 278.357 354.104 279.291 353.301 280.767L353.159 281.04C352.482 282.4 352.316 283.687 352.663 284.9C353.026 286.209 353.924 287.253 355.357 288.033L366.319 293.999L369.359 288.413L367.631 287.473L365.623 291.161L356.39 286.137C355.448 285.624 354.855 284.973 354.61 284.185C354.402 283.513 354.472 282.791 354.821 282.019L354.987 281.685C355.477 280.785 356.112 280.22 356.893 279.989C357.681 279.78 358.546 279.932 359.487 280.444L360.52 278.548Z" fill="black"/>
<path d="M364.87 253.602L371.421 255.889L384.193 254.443L383.092 257.598L382.78 257.634L374.835 258.546C374.641 258.568 374.457 258.584 374.286 258.599C374.409 258.718 374.54 258.846 374.679 258.984L380.578 264.798L379.737 267.203L379.476 267.955L370.378 258.872L363.829 256.585L363.993 256.113L364.706 254.074L364.87 253.602ZM364.466 256.278L370.651 258.438L379.266 267.039L380.001 264.932L374.327 259.341C374.013 259.028 373.741 258.763 373.512 258.547C373.292 258.351 373.126 258.218 373.016 258.146C373.147 258.157 373.36 258.156 373.653 258.14C373.962 258.129 374.337 258.098 374.778 258.049L382.724 257.137L383.459 255.029L371.363 256.398L365.178 254.239L364.466 256.278Z" fill="black"/>
<path d="M370.005 235.694L387.927 240.364L386.994 243.941L380.689 244.298C380.356 244.323 380.025 244.342 379.694 244.355C379.744 244.384 379.795 244.412 379.845 244.44L380.559 244.865L380.56 244.866L385.582 247.96L385.896 248.154L384.964 251.736L367.042 247.067L367.826 244.056L374.465 245.785C374.984 245.92 375.551 246.082 376.165 246.271L376.795 246.468C377.655 246.742 378.527 247.036 379.409 247.349L379.242 247.819C378.364 247.508 377.498 247.216 376.643 246.943C376.002 246.739 375.409 246.562 374.866 246.411L374.339 246.27L368.185 244.665L367.651 246.709L384.605 251.127L385.319 248.386L380.298 245.292C379.827 245.004 379.36 244.733 378.896 244.48C378.449 244.232 378.103 244.034 377.86 243.888C378.14 243.894 378.538 243.891 379.055 243.877C379.586 243.867 380.122 243.841 380.662 243.8L386.603 243.463L387.316 240.722L370.362 236.305L369.83 238.349L375.984 239.952C376.743 240.15 377.57 240.34 378.465 240.523C379.359 240.707 380.256 240.883 381.154 241.051C382.068 241.223 382.93 241.374 383.74 241.502C384.565 241.634 385.29 241.74 385.914 241.82L376.718 242.375L376.143 244.581L383.905 249.53C383.302 249.307 382.595 249.04 381.783 248.729C380.983 248.438 380.136 248.135 379.242 247.819L379.409 247.349C379.518 247.387 379.627 247.426 379.734 247.464L375.567 244.808L375.658 244.455L376.325 241.897L376.688 241.876L381.352 241.594L381.062 241.542C380.612 241.458 380.162 241.372 379.712 241.284L378.364 241.014C377.462 240.829 376.627 240.636 375.858 240.436L369.22 238.706L369.347 238.223L370.005 235.694Z" fill="black"/>
<path d="M373.989 207.894L392.428 209.63L391.389 220.661L388.434 220.383L388.481 219.885L389.179 212.473L384.773 212.059L384.108 219.132L381.178 218.855L381.844 211.782L376.649 211.293L375.905 219.202L372.95 218.924L373.989 207.894ZM373.495 218.474L375.455 218.658L376.199 210.749L382.388 211.332L381.722 218.404L383.657 218.587L384.323 211.514L389.724 212.022L388.979 219.932L390.938 220.116L391.883 210.08L374.44 208.438L373.495 218.474Z" fill="black"/>
<path d="M374.344 193.363L374.844 193.371L392.362 193.617L392.862 193.625L392.778 199.548C392.763 200.655 392.518 201.646 392.029 202.507L392.03 202.508C391.559 203.366 390.9 204.036 390.058 204.504C389.212 204.974 388.24 205.193 387.159 205.178C385.884 205.16 384.768 204.806 383.834 204.1C383.053 203.522 382.482 202.773 382.121 201.863L374.173 205.527L374.225 201.868L381.71 198.612L381.738 196.627L374.3 196.523L374.344 193.363ZM374.807 196.03L382.246 196.136L382.206 198.943L374.72 202.198L374.684 204.741L382.415 201.178C382.72 202.238 383.292 203.078 384.132 203.698C384.866 204.255 385.732 204.574 386.73 204.656L387.166 204.678C388.174 204.692 389.056 204.488 389.814 204.066C390.478 203.698 391.015 203.193 391.425 202.551L391.593 202.268C391.98 201.587 392.204 200.806 392.264 199.925L392.279 199.541L392.355 194.117L374.837 193.871L374.807 196.03ZM390.381 196.25L390.335 199.514L390.317 199.841C390.246 200.585 389.961 201.192 389.465 201.661L389.356 201.759C388.802 202.229 388.082 202.458 387.197 202.445L387.204 201.945C388.047 201.957 388.667 201.726 389.121 201.298C389.576 200.869 389.824 200.289 389.835 199.507L389.873 196.742L384.682 196.67L384.644 199.434C384.633 200.213 384.863 200.798 385.302 201.239C385.763 201.687 386.381 201.934 387.204 201.945L387.197 202.445C386.327 202.433 385.615 202.184 385.062 201.698L384.953 201.598C384.47 201.115 384.203 200.5 384.152 199.754L384.144 199.427L384.189 196.163L390.381 196.25Z" fill="black"/>
<path d="M386.716 178.075C387.832 178.001 388.832 178.147 389.699 178.537L389.707 178.541C390.463 178.896 391.084 179.408 391.563 180.07L391.76 180.363L391.762 180.367C392.199 181.086 392.466 181.926 392.575 182.872L392.613 183.284C392.687 184.399 392.54 185.397 392.151 186.264L392.152 186.265C391.764 187.148 391.161 187.848 390.35 188.351L390.349 188.35C389.543 188.866 388.58 189.152 387.479 189.225L379.552 189.75C378.447 189.823 377.445 189.668 376.563 189.263V189.262C375.694 188.87 375.005 188.257 374.504 187.434V187.433C374.067 186.726 373.801 185.895 373.691 184.952L373.654 184.541C373.58 183.425 373.726 182.418 374.113 181.537L374.115 181.533C374.505 180.667 375.106 179.972 375.909 179.455L375.92 179.448L376.234 179.271C376.985 178.883 377.848 178.663 378.813 178.599L386.716 178.075ZM386.749 178.574L378.846 179.098L378.464 179.132C377.588 179.234 376.827 179.482 376.18 179.876C375.457 180.341 374.921 180.961 374.571 181.738C374.223 182.531 374.084 183.454 374.153 184.508C374.223 185.561 374.483 186.45 374.932 187.174C375.382 187.914 375.995 188.458 376.771 188.808C377.565 189.172 378.481 189.32 379.519 189.251L387.445 188.726C388.483 188.657 389.363 188.39 390.086 187.926C390.81 187.477 391.346 186.856 391.694 186.063C392 185.384 392.145 184.598 392.13 183.706L392.114 183.317C392.044 182.264 391.784 181.367 391.334 180.627C390.885 179.903 390.272 179.358 389.494 178.993C388.717 178.644 387.802 178.504 386.749 178.574ZM386.892 180.729C387.881 180.664 388.656 180.869 389.217 181.345C389.793 181.82 390.112 182.52 390.174 183.446C390.236 184.388 390.013 185.124 389.503 185.655C389.01 186.201 388.268 186.507 387.278 186.572L379.376 187.096L379.015 187.108C378.194 187.107 377.531 186.898 377.026 186.482C376.467 186.022 376.155 185.321 376.093 184.379C376.031 183.453 376.248 182.718 376.74 182.172C377.186 181.693 377.815 181.399 378.629 181.289L378.988 181.253L386.892 180.729ZM386.925 181.228L379.021 181.752C378.12 181.812 377.508 182.083 377.111 182.507L376.978 182.673C376.687 183.079 376.544 183.621 376.592 184.346C376.641 185.088 376.856 185.604 377.192 185.955L377.344 186.096C377.793 186.466 378.437 186.657 379.343 186.597L387.245 186.073C388.152 186.013 388.753 185.74 389.132 185.32L389.137 185.314L389.143 185.309C389.481 184.956 389.678 184.466 389.685 183.783L389.676 183.479C389.628 182.758 389.411 182.241 389.059 181.877L388.899 181.73L388.894 181.726C388.462 181.36 387.831 181.168 386.925 181.228Z" fill="black"/>
<path d="M389.976 162.684L390.049 163.178L390.437 165.81L389.942 165.882L375.05 168.077L376.206 175.912L373.27 176.346L371.653 165.384L389.481 162.756L389.976 162.684ZM372.222 165.806L373.691 175.777L375.639 175.491L374.483 167.655L389.869 165.388L389.554 163.251L372.222 165.806Z" fill="black"/>
<path d="M386.524 146.668L387.906 152.65C388.165 153.772 388.172 154.823 387.907 155.792L387.908 155.793C387.66 156.755 387.173 157.572 386.451 158.231L386.452 158.232C385.729 158.913 384.807 159.372 383.708 159.626C382.623 159.877 381.594 159.867 380.634 159.578C379.814 159.337 379.097 158.91 378.488 158.305L378.233 158.034L378.229 158.028C377.662 157.365 377.25 156.554 376.982 155.61L376.876 155.197L376.205 152.293L369.19 153.913L368.479 150.835L368.967 150.722L386.524 146.668ZM369.079 151.209L369.564 153.313L376.58 151.694L377.363 155.085C377.608 156.145 378.023 157.018 378.608 157.704C379.209 158.386 379.933 158.852 380.778 159.1C381.535 159.327 382.348 159.366 383.219 159.215L383.595 159.139C384.624 158.901 385.462 158.477 386.109 157.868C386.76 157.274 387.199 156.541 387.425 155.668C387.636 154.901 387.66 154.064 387.499 153.156L387.419 152.763L386.149 147.268L369.079 151.209ZM385.524 153.2C385.737 154.12 385.626 154.918 385.19 155.593C384.759 156.284 384.059 156.741 383.093 156.964L382.742 157.031C381.994 157.144 381.328 157.042 380.741 156.728L380.606 156.651C380.005 156.287 379.586 155.73 379.349 154.98L379.258 154.647L378.475 151.257L384.741 149.81L385.524 153.2ZM379.074 151.631L379.745 154.535C379.909 155.246 380.222 155.75 380.667 156.088L380.866 156.224L381.087 156.343C381.616 156.593 382.238 156.648 382.98 156.477C383.848 156.276 384.42 155.883 384.767 155.328L384.77 155.322C385.119 154.78 385.225 154.126 385.037 153.312L384.367 150.409L379.074 151.631Z" fill="black"/>
<path d="M381.515 130.249L382.527 133.437L382.618 133.725L378.287 138.091L378.288 138.092C378.109 138.274 377.914 138.458 377.707 138.647C377.99 138.693 378.257 138.737 378.507 138.782L384.284 139.844L384.58 139.897L385.648 143.263L375.542 141.167L368.077 149.119L367.07 145.951L366.98 145.667L367.188 145.452L371.586 140.907L371.589 140.904C371.763 140.727 371.945 140.542 372.136 140.349C372.049 140.336 371.962 140.324 371.877 140.311L371.399 140.23L371.396 140.229L364.857 138.984L364.768 138.7L363.78 135.595L374.335 137.829L381.515 130.249ZM374.506 138.377L364.518 136.262L365.244 138.549L371.489 139.738C371.792 139.793 372.11 139.843 372.443 139.888C372.781 139.948 373.054 139.988 373.261 140.006C373.102 140.14 372.892 140.325 372.631 140.559C372.39 140.803 372.161 141.035 371.945 141.255L367.547 145.8L368.296 148.156L375.37 140.62L384.913 142.6L384.194 140.335L378.418 139.274C378.115 139.22 377.787 139.164 377.434 139.108C377.1 139.063 376.837 139.03 376.646 139.007L377.215 138.423C377.476 138.189 377.715 137.962 377.931 137.742L382.051 133.588L381.295 131.209L374.506 138.377Z" fill="black"/>
<path d="M376.151 116.95L380.171 126.736L380.36 127.199L377.615 128.327L374.597 120.978L370.504 122.659L373.204 129.23L370.943 130.159L370.48 130.349L367.781 123.777L362.956 125.759L365.975 133.107L365.513 133.298L363.692 134.046L363.229 134.235L359.02 123.986L375.688 117.14L376.151 116.95ZM359.672 124.259L363.502 133.583L365.322 132.835L362.304 125.487L368.054 123.125L370.753 129.696L372.552 128.958L369.853 122.387L374.869 120.326L377.888 127.674L379.708 126.927L375.879 117.603L359.672 124.259Z" fill="black"/>
<path d="M354.173 95.629C354.993 95.1255 355.857 94.9629 356.735 95.1847H356.736C357.569 95.3839 358.235 95.8638 358.726 96.5919L358.821 96.7413C359.326 97.564 359.489 98.4301 359.265 99.3116L359.264 99.3107C359.063 100.192 358.528 100.887 357.71 101.39C356.898 101.888 356.034 102.048 355.146 101.835V101.834C354.316 101.647 353.652 101.164 353.157 100.429L353.061 100.278C352.562 99.4666 352.404 98.6023 352.616 97.714C352.829 96.8258 353.361 96.1274 354.173 95.629ZM356.62 95.671C355.886 95.4837 355.157 95.6121 354.435 96.0558L354.181 96.2257C353.618 96.6407 353.259 97.1757 353.103 97.8302L353.05 98.1105C352.96 98.7608 353.105 99.3964 353.486 100.017C353.93 100.739 354.522 101.183 355.262 101.349C355.917 101.505 356.557 101.426 357.182 101.112L357.448 100.964C358.08 100.576 358.499 100.074 358.705 99.4591L358.78 99.1886C358.944 98.5457 358.866 97.9073 358.547 97.2736L358.396 97.003C358.015 96.3827 357.514 95.9647 356.894 95.7501L356.62 95.671Z" fill="black"/>
<path d="M340.479 62.7178L342.458 65.0098L342.662 65.2471L342.538 65.5352L339.361 72.874C339.284 73.0524 339.206 73.2197 339.134 73.375C339.299 73.3285 339.475 73.2795 339.663 73.2285L347.341 71.1045L347.646 71.0195L347.853 71.2588L349.311 72.9492L349.831 73.5508L337.42 76.8984L332.547 81.1055L332.168 81.4316L330.43 79.4189L330.104 79.04L330.481 78.7129L335.354 74.5059L340.479 62.7178ZM335.769 74.8105L330.809 79.0918L332.22 80.7266L337.18 76.4453L348.933 73.2754L347.474 71.5859L339.202 73.876C339.02 73.9278 338.853 73.9758 338.702 74.0215C338.423 74.1144 338.224 74.1906 338.106 74.25C338.182 74.1421 338.287 73.9575 338.42 73.6953C338.492 73.5588 338.569 73.4053 338.649 73.2354L338.903 72.6758L342.079 65.3359L340.621 63.6465L335.769 74.8105Z" fill="black"/>
<path d="M330.475 52.7471L334.364 56.5898C335.559 57.7704 336.245 59.0398 336.331 60.3955L336.342 60.6523C336.361 61.9296 335.831 63.09 334.816 64.1172C334.204 64.7369 333.521 65.1657 332.77 65.3779C332.138 65.5561 331.5 65.5698 330.862 65.4287C331.08 66.2195 331.074 67.0157 330.841 67.8086L330.842 67.8096C330.604 68.6659 330.116 69.4537 329.404 70.1738C328.657 70.93 327.829 71.4495 326.92 71.708C326.125 71.934 325.322 71.9516 324.519 71.7627L324.175 71.6689L324.167 71.667C323.374 71.408 322.621 70.9472 321.906 70.3037L321.603 70.0166L317.457 65.9199L330.475 52.7471ZM318.164 65.916L321.954 69.6611C322.717 70.4145 323.506 70.9248 324.322 71.1914C325.046 71.4147 325.765 71.4517 326.478 71.3027L326.783 71.2275C327.495 71.0253 328.162 70.6415 328.784 70.0762L329.049 69.8223C329.712 69.1508 330.149 68.435 330.359 67.6758C330.581 66.928 330.577 66.1816 330.347 65.4365C330.258 65.1388 330.129 64.8497 329.966 64.5674C330.19 64.6894 330.417 64.7872 330.648 64.8574C331.234 65.0421 331.814 65.0747 332.389 64.9561L332.634 64.8965C333.207 64.7347 333.745 64.4256 334.247 63.9697L334.46 63.7656C335.461 62.7527 335.918 61.6407 335.832 60.4307C335.762 59.3069 335.224 58.2158 334.22 57.1572L334.013 56.9463L330.479 53.4541L318.164 65.916ZM327.535 63.6709C328.252 64.3793 328.602 65.1521 328.585 65.9893C328.59 66.8264 328.255 67.5867 327.58 68.2695L327.332 68.501C326.787 68.9675 326.191 69.2065 325.546 69.2178L325.396 69.2158C324.616 69.1865 323.866 68.8179 323.149 68.1094L321.033 66.0176L325.419 61.5791L327.535 63.6709ZM321.739 66.0137L323.501 67.7539C324.155 68.4004 324.792 68.6922 325.414 68.7158C326.056 68.7391 326.654 68.4954 327.225 67.918C327.746 67.3899 328.017 66.8361 328.073 66.2471L328.085 65.9932V65.9795C328.097 65.3909 327.889 64.8219 327.407 64.2646L327.185 64.0264L325.423 62.2852L321.739 66.0137ZM332.646 58.3291C333.306 58.9811 333.65 59.669 333.677 60.3926C333.704 61.1165 333.419 61.7806 332.823 62.3838L332.596 62.5947C332.059 63.0533 331.469 63.27 330.825 63.2441C330.192 63.228 329.583 62.9692 328.998 62.4678L328.749 62.2383L326.734 60.248L330.614 56.3213L332.646 58.3291ZM327.44 60.2422L329.101 61.8828C329.696 62.4715 330.274 62.7298 330.838 62.7441H330.846L331.059 62.7422C331.552 62.7093 332.017 62.487 332.467 62.0322C332.984 61.509 333.198 60.9734 333.177 60.4111C333.158 59.9177 332.953 59.4163 332.503 58.9043L332.295 58.6846L330.618 57.0273L327.44 60.2422Z" fill="black"/>
<path d="M304.796 35.3193C305.561 34.9674 306.361 34.8188 307.187 34.8759L307.543 34.913L307.547 34.914C308.389 35.0383 309.213 35.3655 310.017 35.8798L310.36 36.1122C311.275 36.7625 311.959 37.5206 312.388 38.3935C312.823 39.2492 312.989 40.1577 312.881 41.1074C312.773 42.0614 312.384 42.9914 311.742 43.8935L311.452 44.3007L308.877 42.4687L309.167 42.0615C309.626 41.4167 309.807 40.8462 309.781 40.3339L309.758 40.1181L309.756 40.1103L309.755 40.1025C309.686 39.6042 309.422 39.134 308.896 38.6962L308.654 38.5107C307.966 38.0209 307.337 37.8593 306.747 37.9482C306.181 38.0443 305.63 38.4075 305.106 39.1435L300.502 45.6171C299.98 46.3503 299.81 46.998 299.897 47.581C299.986 48.1054 300.268 48.589 300.798 49.0292L301.04 49.2157C301.728 49.7051 302.341 49.8459 302.904 49.7333L302.912 49.7324C303.494 49.6252 304.052 49.2518 304.576 48.5156L305.538 47.163L302.644 45.1034L304.364 42.6855L309.834 46.5761L307.151 50.3476C306.518 51.238 305.768 51.9077 304.897 52.3349L304.894 52.3368C304.031 52.7505 303.113 52.8978 302.153 52.7802L302.146 52.7792C301.312 52.6633 300.493 52.3397 299.69 51.8261L299.348 51.5947C298.55 51.0269 297.919 50.3796 297.473 49.6484L297.293 49.33L297.291 49.3261C296.854 48.4698 296.68 47.5567 296.773 46.5986L296.774 46.5868L296.831 46.2265C296.994 45.3895 297.365 44.5756 297.927 43.7861L302.518 37.332C303.168 36.4181 303.922 35.738 304.789 35.3222L304.796 35.3193ZM307.474 35.4081C306.616 35.289 305.793 35.411 305.005 35.7734C304.23 36.145 303.537 36.7616 302.925 37.622L298.334 44.0751C297.731 44.9226 297.377 45.7804 297.271 46.6474C297.187 47.5105 297.342 48.3275 297.736 49.0986C298.143 49.8788 298.776 50.5754 299.637 51.1874C300.497 51.7995 301.357 52.1649 302.215 52.2841C303.082 52.3902 303.902 52.2572 304.677 51.8857C305.363 51.549 305.976 51.0403 306.517 50.3593L306.744 50.0575L309.137 46.6933L304.481 43.3827L303.341 44.9863L306.235 47.0449L304.983 48.8056L304.764 49.0927C304.242 49.7265 303.655 50.1034 303.003 50.2236C302.362 50.3518 301.707 50.2143 301.038 49.8115L300.75 49.623C299.981 49.0758 299.532 48.4226 299.404 47.664C299.304 47.0083 299.467 46.3297 299.895 45.6288L300.095 45.3271L304.699 38.8544C305.274 38.0461 305.93 37.5792 306.666 37.455C307.415 37.3402 308.174 37.5565 308.943 38.1034C309.712 38.6505 310.148 39.2942 310.25 40.0341C310.374 40.7704 310.149 41.5431 309.574 42.3515L311.334 43.6034C311.862 42.8618 312.196 42.1176 312.336 41.371L312.384 41.0517C312.481 40.1979 312.332 39.3852 311.938 38.6142C311.554 37.83 310.931 37.1315 310.07 36.5195C309.21 35.9074 308.344 35.5366 307.474 35.4081Z" fill="black"/>
<path d="M292.147 24.7656L295.352 26.6807L292.873 39.1729C293.161 38.6653 293.438 38.1878 293.705 37.7412L298.752 29.2939L299.009 28.8652L301.23 30.1924L301.659 30.4492L292.417 45.918L292.161 46.3477L288.956 44.4326L291.476 31.8242C291.186 32.3655 290.896 32.8819 290.604 33.3721L285.557 41.8193L285.3 42.248L282.649 40.665L282.905 40.2354L291.892 25.1953L292.147 24.7656ZM283.335 40.4922L285.127 41.5625L290.174 33.1152C290.326 32.8612 290.478 32.6005 290.629 32.332L291.081 31.5049C291.404 30.9335 291.699 30.3917 291.967 29.8809C292.243 29.3565 292.465 28.9212 292.635 28.5752L289.516 44.1846L291.988 45.6621L300.974 30.6221L299.182 29.5508L294.135 37.998L293.682 38.7686C293.527 39.0351 293.368 39.311 293.207 39.5967C292.906 40.1625 292.618 40.7078 292.342 41.2324C292.088 41.7515 291.872 42.191 291.694 42.5508L294.793 26.9287L292.32 25.4521L283.335 40.4922Z" fill="black"/>
<path d="M278.317 17.7588L278.766 17.9795L287.169 22.1025L287.617 22.3232L286.53 24.5381L286.311 24.9873L285.861 24.7676L283.1 23.4111L277.556 34.709L280.317 36.0645L280.767 36.2842L279.459 38.9492L270.158 34.3848L270.379 33.9365L271.246 32.1699L271.466 31.7207L274.676 33.2959L280.22 21.998L277.01 20.4238L277.229 19.9746L278.317 17.7588ZM277.679 20.1953L280.889 21.7705L274.905 33.9648L271.694 32.3896L270.827 34.1562L279.23 38.2803L280.098 36.5127L276.887 34.9375L282.871 22.7432L286.081 24.3184L286.948 22.5518L278.546 18.4277L277.679 20.1953Z" fill="black"/>
<path d="M263.387 11.6309L269.099 13.8848C270.17 14.3075 271.041 14.8967 271.688 15.6641C272.342 16.4161 272.741 17.2824 272.874 18.2539H272.872C273.021 19.2332 272.877 20.2513 272.464 21.2979C272.055 22.3336 271.464 23.1748 270.682 23.8018C269.923 24.4177 269.042 24.7853 268.05 24.9043L268.042 24.9053C267.174 24.9956 266.273 24.8754 265.343 24.5605L264.943 24.4141L262.171 23.3193L259.528 30.0176L256.589 28.8574L263.387 11.6309ZM257.237 28.5762L259.247 29.3691L261.89 22.6719L265.127 23.9492C266.013 24.2986 266.854 24.4595 267.651 24.4316L267.99 24.4082C268.893 24.3 269.686 23.9679 270.37 23.4121C270.987 22.9178 271.479 22.2693 271.849 21.4668L271.999 21.1143C272.387 20.132 272.513 19.2011 272.378 18.3223C272.258 17.4495 271.903 16.6727 271.312 15.9922C270.799 15.3836 270.123 14.8877 269.284 14.5059L268.915 14.3496L263.668 12.2793L257.237 28.5762ZM268.201 16.1582C269.079 16.5047 269.673 17.0487 269.982 17.79C270.307 18.5372 270.287 19.3723 269.923 20.2949L269.779 20.6221C269.423 21.3541 268.915 21.8682 268.256 22.165L268.117 22.2236C267.422 22.4933 266.663 22.4654 265.84 22.1406L262.604 20.8633L264.964 14.8809L268.201 16.1582ZM263.251 20.5811L266.023 21.6758C266.8 21.9821 267.463 21.974 268.051 21.709C268.664 21.4328 269.138 20.9214 269.458 20.1113C269.785 19.2833 269.784 18.5883 269.523 17.9883L269.521 17.9824C269.273 17.3875 268.794 16.9294 268.018 16.623L265.245 15.5293L263.251 20.5811Z" fill="black"/>
<path d="M248.297 6.83691L254.171 8.62305C255.276 8.95902 256.194 9.47778 256.902 10.1934L256.901 10.1943C257.61 10.8901 258.074 11.7191 258.285 12.6738C258.512 13.638 258.45 14.6647 258.123 15.7412C257.799 16.8052 257.278 17.6904 256.551 18.3779C255.844 19.0544 254.994 19.4937 254.014 19.6924L254.006 19.6934C253.026 19.876 251.979 19.7883 250.877 19.4531L248.025 18.5859L245.932 25.4746L242.908 24.5557L248.297 6.83691ZM243.532 24.2227L245.599 24.8506L247.693 17.9619L251.022 18.9746C251.933 19.2516 252.786 19.3448 253.578 19.2529L253.914 19.2021C254.805 19.0216 255.569 18.6266 256.206 18.0176C256.863 17.3979 257.342 16.5905 257.645 15.5957C257.952 14.5854 258.003 13.6473 257.798 12.7822C257.632 12.0292 257.292 11.3642 256.777 10.7871L256.547 10.5449C255.907 9.89887 255.066 9.41812 254.025 9.10156L248.63 7.45996L243.532 24.2227ZM253.46 10.9609C254.363 11.2356 254.999 11.7303 255.367 12.4443C255.751 13.163 255.797 13.9973 255.509 14.9463C255.225 15.8798 254.721 16.5456 253.998 16.9443C253.383 17.2839 252.691 17.3699 251.923 17.2021L251.589 17.1152L248.259 16.1025L250.131 9.94824L253.46 10.9609ZM248.883 15.7705L251.734 16.6367L252.027 16.7139C252.696 16.8605 253.263 16.7793 253.757 16.5068L253.971 16.375C254.451 16.0412 254.809 15.5299 255.031 14.8008C255.29 13.9491 255.234 13.2568 254.926 12.6797L254.923 12.6738C254.664 12.1724 254.238 11.7896 253.601 11.5391L253.314 11.4395L250.463 10.5732L248.883 15.7705Z" fill="black"/>
<path d="M235.223 4.22667C236.151 3.973 237.167 3.9762 238.261 4.213C239.354 4.44977 240.276 4.8654 241.002 5.4796L241.001 5.48058C241.742 6.09708 242.248 6.86802 242.507 7.78527L242.506 7.78624C242.78 8.70341 242.788 9.70776 242.555 10.7862L240.873 18.5509C240.639 19.6329 240.212 20.5517 239.579 21.2882C238.963 22.0154 238.184 22.5086 237.254 22.7628C236.454 22.988 235.582 23.0147 234.646 22.8595L234.239 22.7823C233.282 22.5751 232.453 22.2288 231.765 21.7335L231.479 21.5128L231.476 21.5099C230.751 20.8967 230.248 20.1268 229.973 19.212L229.969 19.2003V19.1993C229.716 18.2726 229.717 17.2637 229.95 16.1847L231.627 8.44445C231.864 7.35123 232.28 6.4293 232.895 5.70324L232.899 5.69738L233.143 5.43859C233.725 4.85913 234.419 4.45373 235.218 4.22765L235.223 4.22667ZM238.155 4.70128C237.123 4.4778 236.19 4.47985 235.355 4.70812C234.535 4.93986 233.842 5.37966 233.276 6.02648C232.726 6.67675 232.339 7.51788 232.115 8.54991L230.439 16.2901L230.367 16.6671C230.224 17.5368 230.251 18.3375 230.451 19.0685C230.699 19.8914 231.148 20.578 231.798 21.128C232.464 21.6815 233.313 22.0695 234.345 22.2931C235.377 22.5166 236.303 22.5131 237.123 22.2814C237.958 22.053 238.651 21.6132 239.201 20.963C239.699 20.3833 240.063 19.668 240.294 18.8175L240.385 18.4444L242.066 10.6808C242.287 9.66434 242.273 8.74402 242.025 7.92101C241.823 7.20386 241.453 6.5887 240.918 6.07531L240.679 5.86144C240.11 5.38016 239.394 5.02436 238.533 4.79308L238.155 4.70128ZM235.46 6.94152C236.076 6.51824 236.837 6.40525 237.744 6.60167C238.666 6.80149 239.312 7.21928 239.682 7.85558C240.07 8.47999 240.16 9.27766 239.95 10.2472L238.273 17.9874L238.186 18.338C237.958 19.1267 237.574 19.7059 237.035 20.0763C236.513 20.436 235.866 20.5623 235.095 20.4542L234.757 20.3937C233.85 20.1973 233.202 19.7865 232.814 19.1622C232.428 18.5223 232.34 17.7175 232.55 16.7482L234.227 9.00695C234.423 8.09821 234.797 7.43666 235.348 7.02159L235.46 6.94152ZM237.638 7.08995C236.831 6.91519 236.219 7.02661 235.743 7.35363L235.737 7.35753C235.267 7.671 234.908 8.22551 234.716 9.11339L233.039 16.8536C232.848 17.7364 232.94 18.3993 233.237 18.8976C233.537 19.3788 234.051 19.7287 234.862 19.9044C235.693 20.0843 236.301 19.976 236.752 19.6651V19.6642C237.232 19.3341 237.593 18.7685 237.785 17.8819L239.461 10.1407C239.629 9.36414 239.576 8.76737 239.36 8.3087L239.258 8.12023L239.25 8.10656C238.97 7.62381 238.464 7.26892 237.638 7.08995Z" fill="black"/>
<path d="M216.289 0.860352L216.785 0.925781L228.938 2.54199L228.872 3.03711L228.613 4.98828L228.547 5.48438L228.052 5.41797L223.788 4.85156L221.802 19.7959L221.735 20.291L218.604 19.875L218.669 19.3789L220.656 4.43555L216.394 3.86816L215.898 3.80176L216.289 0.860352ZM216.46 3.37207L221.218 4.00488L219.165 19.4453L221.306 19.7295L223.359 4.29004L228.117 4.92285L228.377 2.97168L216.719 1.42188L216.46 3.37207Z" fill="black"/>
<path d="M206.613 2.7402e-05L207.022 0.0117462C208.652 0.0970915 209.988 0.628962 210.975 1.64749L211.154 1.83987C212.022 2.81853 212.413 4.05149 212.354 5.49612L212.333 6.001L209.172 5.83596L209.198 5.33694C209.238 4.58266 209.039 4.04626 208.656 3.66018L208.651 3.65432L208.646 3.64846C208.321 3.29902 207.84 3.06068 207.151 2.97659L206.844 2.95022C205.995 2.9058 205.386 3.07876 204.957 3.4053C204.559 3.72077 204.324 4.18374 204.288 4.86331C204.259 5.41012 204.361 5.88149 204.583 6.29202L204.686 6.46389C204.938 6.85203 205.305 7.16289 205.81 7.3887L206.034 7.4805L206.038 7.48245L208.395 8.37405L208.394 8.37503C209.627 8.83615 210.589 9.56838 211.247 10.5811C211.903 11.5898 212.191 12.7435 212.124 14.0215C212.07 15.0607 211.778 15.9808 211.232 16.7627C210.691 17.5398 209.954 18.1219 209.04 18.5127C208.249 18.8577 207.366 19.0226 206.398 19.0186L205.98 19.0069C204.775 18.9438 203.719 18.687 202.83 18.2188L202.827 18.2178C201.953 17.7492 201.278 17.0979 200.818 16.2657C200.358 15.4313 200.158 14.4716 200.196 13.4053L200.215 12.8975L202.879 13.0371L203.378 13.0625L203.353 13.5625C203.313 14.3161 203.531 14.8783 203.977 15.3067C204.445 15.7425 205.142 16.0155 206.133 16.0674C207.06 16.116 207.722 15.9216 208.183 15.5547L208.188 15.5508C208.656 15.1892 208.926 14.663 208.966 13.9043C208.998 13.2981 208.861 12.7789 208.567 12.3272L208.562 12.3184C208.29 11.8819 207.872 11.5521 207.272 11.3399L207.265 11.3369L204.931 10.4698C203.749 10.0382 202.81 9.37638 202.139 8.47464L202.008 8.29104L202.004 8.28616C201.346 7.29277 201.056 6.15327 201.122 4.88968C201.175 3.87197 201.448 2.97573 201.959 2.22268L201.961 2.22073C202.484 1.4603 203.187 0.889895 204.056 0.51077C204.819 0.164031 205.675 -0.00245748 206.613 2.7402e-05ZM206.995 0.51077C205.957 0.456441 205.044 0.60862 204.256 0.967801C203.469 1.31112 202.841 1.82352 202.373 2.50393C201.922 3.16925 201.671 3.97333 201.622 4.91604L201.614 5.13284C201.595 6.21052 201.864 7.16953 202.421 8.00979C203.031 8.90687 203.925 9.57078 205.105 10.001L207.438 10.8682C208.131 11.1127 208.646 11.5082 208.986 12.0547C209.342 12.6021 209.502 13.2277 209.465 13.9307C209.419 14.8092 209.095 15.4812 208.494 15.9463C207.909 16.4122 207.113 16.6191 206.106 16.5664C205.103 16.5139 204.315 16.2471 203.742 15.7666L203.631 15.668C203.066 15.1258 202.807 14.4149 202.853 13.5362L200.695 13.4229C200.659 14.4144 200.847 15.282 201.257 16.0244C201.667 16.7666 202.269 17.3504 203.063 17.7764C203.874 18.2033 204.855 18.4476 206.005 18.5078C207.075 18.5639 208.021 18.4133 208.841 18.0557C209.572 17.7435 210.169 17.3011 210.632 16.7295L210.822 16.4766C211.247 15.868 211.504 15.1586 211.596 14.3487L211.625 13.9951C211.683 12.8866 211.453 11.8965 210.936 11.0254L210.828 10.8535C210.272 9.99836 209.473 9.35494 208.43 8.92483L208.218 8.84182L205.861 7.94925C205.243 7.72066 204.758 7.383 204.408 6.93557L204.267 6.73636C203.955 6.2574 203.794 5.71297 203.784 5.10257L203.789 4.83694C203.831 4.0382 204.119 3.42844 204.653 3.00784C205.204 2.58805 205.943 2.40269 206.87 2.4512C207.812 2.5006 208.526 2.78579 209.012 3.30764C209.514 3.81453 209.742 4.49965 209.697 5.36233L211.855 5.47561C211.909 4.14158 211.551 3.03929 210.778 2.16897L210.618 1.99807C209.737 1.08688 208.529 0.59105 206.995 0.51077Z" fill="black"/>
<path d="M175.72 1.07617C176.821 0.958505 177.834 1.08267 178.747 1.46386C179.543 1.78279 180.212 2.26108 180.746 2.89843L180.967 3.18164C181.464 3.86684 181.782 4.67091 181.931 5.58105L181.984 5.97851C182.12 7.24579 181.903 8.39652 181.314 9.4082C180.835 10.2535 180.16 10.9101 179.3 11.3779L183.895 18.8281L180.255 19.2168L176.123 12.1777L174.148 12.3877L174.887 19.2881L174.94 19.7852L171.798 20.1211L169.829 1.70605L175.72 1.07617ZM178.562 1.92675C177.736 1.58068 176.806 1.4627 175.772 1.57324L170.379 2.15039L172.242 19.5713L174.39 19.3418L173.599 11.9434L176.391 11.6445L180.522 18.6855L183.053 18.415L178.585 11.1689C179.537 10.7654 180.269 10.152 180.78 9.3291L180.88 9.16113C181.344 8.3654 181.557 7.46744 181.519 6.46679L181.486 6.03125C181.379 5.0291 181.071 4.17733 180.562 3.47558C180.052 2.77378 179.385 2.25704 178.562 1.92675ZM175.979 3.50683C176.87 3.41167 177.615 3.61348 178.216 4.1123C178.816 4.61127 179.167 5.32995 179.268 6.26855C179.366 7.19119 179.176 7.96809 178.696 8.59863C178.215 9.21323 177.528 9.56777 176.638 9.66308L173.392 10.0107L172.733 3.85351L175.979 3.50683ZM176.032 4.0039L173.283 4.29785L173.835 9.46093L176.584 9.16601C177.362 9.0828 177.916 8.78232 178.302 8.29004C178.64 7.84332 178.812 7.29697 178.791 6.62109L178.771 6.32226C178.681 5.48426 178.377 4.89609 177.896 4.49707C177.416 4.09742 176.81 3.92069 176.032 4.0039Z" fill="black"/>
<path d="M159.587 3.20205C160.686 2.99388 161.697 3.01813 162.606 3.30068L162.605 3.30166C163.524 3.5799 164.289 4.09062 164.885 4.83095C165.421 5.47748 165.795 6.26606 166.018 7.18154L166.105 7.58193L167.583 15.3866C167.789 16.4746 167.755 17.4879 167.459 18.413C167.176 19.3214 166.651 20.0776 165.896 20.6737L165.897 20.6747C165.155 21.2698 164.222 21.6618 163.123 21.87C162.161 22.0522 161.262 22.0578 160.436 21.87L160.086 21.7772L160.082 21.7763C159.289 21.5294 158.605 21.1061 158.038 20.5116L157.803 20.246L157.795 20.2362C157.275 19.5757 156.909 18.7814 156.688 17.8661L156.602 17.4667L155.128 9.68544C154.92 8.5866 154.944 7.57582 155.227 6.66787L155.23 6.65908C155.528 5.75202 156.051 4.9962 156.791 4.40224L156.794 4.39931C157.55 3.80389 158.488 3.41031 159.587 3.20205ZM162.457 3.77822C161.644 3.52518 160.718 3.4968 159.681 3.69326L159.3 3.77529C158.431 3.98437 157.699 4.32293 157.104 4.79189C156.439 5.32484 155.973 6.00006 155.704 6.8163C155.451 7.62954 155.423 8.55525 155.619 9.59267L157.093 17.3739C157.286 18.3957 157.652 19.2465 158.188 19.9267C158.736 20.5881 159.417 21.0457 160.231 21.2987C160.956 21.5175 161.761 21.5655 162.647 21.4423L163.03 21.3788C164.068 21.1823 164.919 20.8179 165.583 20.2851C166.263 19.7491 166.73 19.0739 166.983 18.2606C167.216 17.5328 167.272 16.7323 167.153 15.8593L167.092 15.4804L165.613 7.6747C165.42 6.65312 165.049 5.81165 164.5 5.15029C164.034 4.56896 163.454 4.14588 162.761 3.88173L162.457 3.77822ZM160.042 5.60341C160.97 5.42774 161.728 5.56069 162.316 6.00283C162.918 6.42632 163.311 7.12581 163.495 8.10048L164.969 15.8817C165.153 16.8564 165.045 17.6592 164.644 18.289C164.255 18.9 163.596 19.293 162.668 19.4686C161.756 19.6412 161 19.5161 160.399 19.0927C159.87 18.7084 159.502 18.1191 159.295 17.3251L159.216 16.9716L157.741 9.19033C157.557 8.2159 157.667 7.42151 158.071 6.80751C158.423 6.2565 158.97 5.87973 159.712 5.67861L160.042 5.60341ZM162.016 6.40322C161.569 6.06792 160.966 5.93727 160.135 6.09462C159.324 6.24835 158.804 6.58959 158.493 7.07607L158.489 7.08193C158.178 7.5541 158.063 8.20496 158.233 9.09755L159.707 16.8788C159.875 17.7664 160.219 18.3405 160.687 18.6835C161.15 19.0099 161.76 19.1319 162.575 18.9774C163.41 18.8193 163.928 18.4825 164.222 18.0204V18.0194C164.535 17.5284 164.646 16.8668 164.478 15.9755L163.004 8.19326C162.835 7.30079 162.491 6.73762 162.028 6.41201L162.023 6.40712L162.016 6.40322Z" fill="black"/>
<path d="M149.886 5.42676L150.673 8.28809L142.758 10.4658L144.04 15.124L151.353 13.1123L152.14 15.9746L144.873 17.9727L146.936 25.4707L146.453 25.6025L143.889 26.3086L138.971 8.42773L139.453 8.2959L149.403 5.55859L149.886 5.42676ZM139.586 8.77734L144.238 25.6934L146.32 25.1211L144.259 17.623L151.524 15.625L151.003 13.7275L143.69 15.7383L142.144 10.1152L150.058 7.93848L149.536 6.04102L139.586 8.77734Z" fill="black"/>
<path d="M114.483 17.5614C115.968 16.8784 117.4 16.7281 118.749 17.1728L118.748 17.1737C120.009 17.5779 120.969 18.4302 121.627 19.6825L121.755 19.9384L121.971 20.3954L119.095 21.7187L118.886 21.2636C118.57 20.5777 118.145 20.1952 117.627 20.0312L117.62 20.0292L117.612 20.0263C117.098 19.8453 116.471 19.8876 115.692 20.246C114.92 20.6013 114.461 21.0378 114.233 21.5263C114.054 21.9321 114.036 22.38 114.225 22.8993L114.319 23.1269C114.548 23.6242 114.857 23.9944 115.244 24.2548L115.415 24.3603L115.592 24.4491C116.015 24.6405 116.506 24.7078 117.082 24.6327H117.086L119.585 24.3271L119.828 24.3007C120.959 24.1961 122.001 24.3741 122.939 24.8486L123.138 24.955C124.122 25.5066 124.88 26.3209 125.411 27.3788L125.514 27.5937L125.665 27.9482C125.987 28.7763 126.103 29.608 125.999 30.4355C125.88 31.3762 125.499 32.2353 124.87 33.0068L124.869 33.0058C124.253 33.7737 123.42 34.3906 122.391 34.8642C121.295 35.3682 120.242 35.631 119.237 35.6298H119.233C118.366 35.6223 117.568 35.4204 116.851 35.0194L116.548 34.8359C115.852 34.3767 115.287 33.7398 114.848 32.9433L114.667 32.5927L114.447 32.1347L114.908 31.9218L117.325 30.8105L117.534 31.2646C117.85 31.9503 118.304 32.3465 118.898 32.5185C119.516 32.6867 120.259 32.604 121.16 32.1894C122.004 31.8012 122.5 31.3221 122.737 30.7831L122.74 30.7773C122.955 30.307 122.978 29.795 122.768 29.2118L122.663 28.9579C122.441 28.4754 122.137 28.1113 121.749 27.8515L121.577 27.747L121.568 27.7421L121.822 27.3105C122.392 27.6297 122.823 28.1095 123.117 28.7489C123.485 29.5482 123.511 30.2931 123.195 30.9843C122.894 31.6689 122.285 32.2222 121.369 32.6435C120.395 33.0914 119.525 33.21 118.759 32.9989C118.007 32.7812 117.448 32.2727 117.08 31.4736L115.117 32.3759C115.546 33.2704 116.115 33.951 116.823 34.4179C117.531 34.8847 118.336 35.1219 119.237 35.1298C120.039 35.1308 120.891 34.9476 121.793 34.579L122.182 34.4101C123.034 34.0181 123.728 33.5303 124.263 32.9472L124.482 32.6913C124.985 32.0749 125.308 31.4058 125.452 30.6845L125.503 30.372C125.596 29.636 125.494 28.8883 125.198 28.1288L125.06 27.8027C124.565 26.727 123.843 25.9225 122.894 25.3905C121.944 24.8587 120.862 24.6693 119.648 24.8232L117.147 25.1288C116.399 25.2262 115.74 25.115 115.17 24.7958C114.601 24.4766 114.165 23.9898 113.864 23.3359C113.572 22.7 113.514 22.1046 113.69 21.5497L113.78 21.3144C114.036 20.7654 114.503 20.3078 115.18 19.9423L115.483 19.7909C116.341 19.3965 117.106 19.318 117.778 19.5546C118.374 19.7431 118.846 20.1498 119.197 20.7743L119.341 21.0546L121.303 20.1523C120.693 18.8653 119.789 18.0309 118.592 17.6484C117.388 17.2513 116.088 17.3736 114.692 18.0155L114.348 18.1845C113.567 18.5921 112.944 19.0955 112.48 19.6943L112.288 19.9482C111.866 20.5507 111.612 21.211 111.526 21.9286C111.436 22.7275 111.588 23.5564 111.982 24.414C112.471 25.4749 113.187 26.2638 114.129 26.7812C115.086 27.2919 116.187 27.464 117.431 27.2968L119.899 26.9794C120.626 26.8741 121.267 26.9846 121.822 27.3105L121.568 27.7421C121.125 27.482 120.602 27.3832 119.972 27.4745L119.963 27.4755L117.493 27.7919C116.247 27.9589 115.108 27.8105 114.095 27.3241L113.894 27.2226L113.888 27.2196C112.843 26.6461 112.057 25.7715 111.528 24.622C111.103 23.6964 110.927 22.7769 111.029 21.873L111.03 21.8691C111.14 20.9553 111.494 20.1255 112.084 19.3876L112.315 19.1103C112.878 18.4793 113.606 17.9653 114.483 17.5614Z" fill="black"/>
<path d="M106.306 21.7109L106.665 31.748L115.58 37.7432L112.718 39.3516L112.449 39.5029L112.193 39.3311L104.918 34.4297L103.425 35.2686L107.4 42.3408L106.964 42.585L104.646 43.8887L95.8164 28.1797L95.5723 27.7432L98.3271 26.1953L98.5713 26.6309L102.007 32.7441L103.565 31.8672L103.274 23.415L106.306 21.7109ZM103.785 23.7012L104.075 32.1553L101.816 33.4248L98.1357 26.876L96.2529 27.9346L104.836 43.208L106.719 42.1494L102.745 35.0781L104.941 33.8428L112.473 38.916L114.628 37.7051L106.176 32.0215L105.835 22.5488L103.785 23.7012Z" fill="black"/>
<path d="M91.4814 30.2617L101.824 45.624L98.7275 47.709L98.4443 47.499L88.3916 40.0625C88.5651 40.2955 88.7337 40.5261 88.8965 40.7549L89.4199 41.5107L95.1943 50.0879L94.7803 50.3672L92.6328 51.8125L82.29 36.4492L85.0938 34.5615L85.3867 34.3652L95.6357 41.9248C95.487 41.7141 95.3419 41.5085 95.2021 41.3066L94.6943 40.5635L88.9199 31.9863L89.334 31.707L91.4814 30.2617ZM89.6133 32.1211L95.1094 40.2842C95.431 40.7619 95.7816 41.2686 96.1611 41.8037L97.2725 43.2832C97.6339 43.7342 97.9395 44.1167 98.1895 44.4307L85.373 34.9766L82.9844 36.585L92.7686 51.1182L94.501 49.9521L89.0049 41.7891C88.6744 41.2981 88.3174 40.796 87.9336 40.2832C87.5541 39.7481 87.1899 39.2508 86.8418 38.791C86.4846 38.3178 86.1853 37.9305 85.9443 37.6299L98.7412 47.0967L101.13 45.4883L91.3457 30.9551L89.6133 32.1211Z" fill="black"/>
<path d="M75.5732 41.5576L90.8652 53.0527L88.6523 54.8164L88.3467 55.0605L84.543 52.1367L81.0078 54.9551L82.8457 58.958L83.0088 59.3145L82.7021 59.5576L80.9756 60.9346L80.4697 61.3369L72.6973 43.8496L73 43.6094L75.5732 41.5576ZM73.3115 44L80.6641 60.543L82.3906 59.167L80.3896 54.8076L84.5381 51.502L88.3408 54.4258L90.0488 53.0645L75.582 42.1904L73.3115 44ZM75.5146 44.4541C75.6695 44.5969 76.0176 44.8929 76.5586 45.3408C77.0999 45.789 77.7898 46.3335 78.6279 46.9746L83.0449 50.3604L79.5908 53.1123L77.2617 48.0332C77.0478 47.5595 76.8481 47.1252 76.6621 46.7314L76.1455 45.6689C75.8296 45.0418 75.6193 44.6368 75.5146 44.4541ZM77.043 46.374C77.2498 46.8091 77.4765 47.2929 77.7178 47.8271L79.7793 52.3223L82.2324 50.3672L78.3242 47.3711C77.8507 47.0089 77.4238 46.6762 77.043 46.374Z" fill="black"/>
<path d="M66.1484 49.3193L78.8135 62.8311L76.5078 64.9922L70.9932 59.1084L67.625 62.2646L73.1396 68.1494L71.1992 69.9678L70.835 70.3105L58.1689 56.7979L60.4746 54.6367L65.5947 60.0996L68.9629 56.9434L63.8428 51.4805L66.1484 49.3193ZM64.5498 51.5029L69.6699 56.9658L65.5732 60.8066L60.4521 55.3438L58.876 56.8203L70.8574 69.6035L72.4336 68.126L66.9189 62.2432L71.0166 58.4023L76.5312 64.2861L78.1064 62.8086L66.125 50.0254L64.5498 51.5029Z" fill="black"/>
<path d="M55.332 59.5918L57.5283 61.5879L54.2998 65.1396L65.8281 75.6162L65.4922 75.9863L64.0391 77.584L63.7031 77.9541L52.1758 67.4785L48.9473 71.0312L46.751 69.0352L55.332 59.5918ZM47.457 69.002L48.9131 70.3252L52.1416 66.7725L63.6689 77.248L65.1221 75.6494L53.5947 65.1748L56.8223 61.6221L55.3662 60.2988L47.457 69.002Z" fill="black"/>
</svg>
